# Blender v2.90.0 OBJ File: 'ConcreteBlock.blend'
# www.blender.org
mtllib ConcreteBlock.mtl
o ConcreteBlock_Cube.086
v -1.638490 -0.635357 0.701038
v -1.638490 -0.294608 0.701038
v -1.638490 -0.635357 -0.701038
v -1.638490 -0.294608 -0.701038
v 1.638490 -0.635357 0.701038
v 1.638490 -0.294608 0.701038
v 1.638490 -0.635357 -0.701038
v 1.638490 -0.294608 -0.701038
v -1.638490 0.029564 0.341413
v -1.638490 0.029564 -0.341413
v 1.638490 0.029564 -0.341413
v 1.638490 0.029564 0.341413
v -1.638490 0.900401 0.106530
v -1.638490 0.900401 -0.106530
v 1.638490 0.900401 -0.106530
v 1.638490 0.900401 0.106530
vt 0.625000 0.000000
vt 0.375000 0.250000
vt 0.375000 0.000000
vt 0.625000 0.250000
vt 0.375000 0.500000
vt 0.625000 0.500000
vt 0.375000 0.750000
vt 0.625000 0.750000
vt 0.375000 1.000000
vt 0.125000 0.750000
vt 0.125000 0.500000
vt 0.625000 0.750000
vt 0.625000 1.000000
vt 0.625000 1.000000
vt 0.625000 0.250000
vt 0.625000 1.000000
vt 0.625000 0.500000
vt 0.875000 0.500000
vt 0.625000 0.750000
vt 0.625000 0.500000
vt 0.625000 0.000000
vt 0.625000 0.250000
vt 0.875000 0.750000
vt 0.625000 0.000000
vn -1.0000 0.0000 0.0000
vn 0.0000 0.0000 -1.0000
vn 1.0000 0.0000 0.0000
vn 0.0000 0.0000 1.0000
vn 0.0000 -1.0000 0.0000
vn 0.0000 0.2604 0.9655
vn 0.0000 0.7428 0.6695
vn 0.0000 0.7428 -0.6695
vn 0.0000 1.0000 0.0000
vn 0.0000 0.2604 -0.9655
usemtl Gray_ConcreteBlock
s off
f 2/1/1 3/2/1 1/3/1
f 4/4/2 7/5/2 3/2/2
f 8/6/3 5/7/3 7/5/3
f 6/8/4 1/9/4 5/7/4
f 7/5/5 1/10/5 3/11/5
f 8/6/3 12/12/3 6/8/3
f 12/12/6 13/13/6 9/14/6
f 2/1/1 10/15/1 4/4/1
f 6/8/7 9/14/7 2/16/7
f 4/4/8 11/17/8 8/6/8
f 14/18/9 16/19/9 15/20/9
f 10/15/10 15/20/10 11/17/10
f 11/17/3 16/19/3 12/12/3
f 9/21/1 14/22/1 10/15/1
f 2/1/1 4/4/1 3/2/1
f 4/4/2 8/6/2 7/5/2
f 8/6/3 6/8/3 5/7/3
f 6/8/4 2/16/4 1/9/4
f 7/5/5 5/7/5 1/10/5
f 8/6/3 11/17/3 12/12/3
f 12/12/6 16/19/6 13/13/6
f 2/1/1 9/21/1 10/15/1
f 6/8/7 12/12/7 9/14/7
f 4/4/8 10/15/8 11/17/8
f 14/18/9 13/23/9 16/19/9
f 10/15/10 14/22/10 15/20/10
f 11/17/3 15/20/3 16/19/3
f 9/21/1 13/24/1 14/22/1
