# Blender v2.90.0 OBJ File: 'GasTank.blend'
# www.blender.org
mtllib GasTank.mtl
o GasTank_Cylinder.020
v 4.376914 -2.565305 -0.000000
v 4.376914 -2.024292 1.665067
v 4.376914 -0.607901 2.694135
v 4.376914 1.142854 2.694135
v 4.376914 2.559245 1.665067
v 4.376914 3.100258 -0.000000
v 4.376914 2.559245 -1.665068
v 4.376914 1.142854 -2.694136
v 4.376914 -0.607902 -2.694136
v 4.376914 -2.024293 -1.665067
v 5.535731 -1.740208 -0.000000
v 5.535731 -1.356774 1.180087
v 5.535731 -0.352932 1.909421
v 5.535731 0.887885 1.909421
v 5.535731 1.891727 1.180087
v 5.535731 2.275161 -0.000000
v 5.535731 1.891727 -1.180088
v 5.535731 0.887885 -1.909421
v 5.535731 -0.352932 -1.909421
v 5.535731 -1.356775 -1.180087
v -5.266211 -2.565305 0.000000
v -5.266211 -2.024292 1.665068
v -5.266211 -0.607901 2.694136
v -5.266211 1.142855 2.694136
v -5.266211 2.559246 1.665067
v -5.266211 3.100259 -0.000000
v -5.266211 2.559245 -1.665067
v -5.266211 1.142855 -2.694135
v -5.266211 -0.607901 -2.694135
v -5.266211 -2.024292 -1.665066
v -0.444648 -2.565305 0.000000
v -0.444648 -2.024292 1.665067
v -0.444648 -0.607901 2.694136
v -0.444648 1.142854 2.694135
v -0.444648 2.559245 1.665067
v -0.444648 3.100258 -0.000000
v -0.444648 2.559245 -1.665068
v -0.444648 1.142855 -2.694135
v -0.444648 -0.607901 -2.694135
v -0.444648 -2.024293 -1.665066
v -6.425028 -1.740207 0.000000
v -6.425028 -1.356774 1.180087
v -6.425028 -0.352932 1.909422
v -6.425028 0.887886 1.909421
v -6.425028 1.891728 1.180087
v -6.425028 2.275161 0.000000
v -6.425028 1.891727 -1.180087
v -6.425028 0.887886 -1.909421
v -6.425028 -0.352932 -1.909421
v -6.425028 -1.356774 -1.180086
v 2.178768 2.244516 -0.941137
v 2.178768 3.554374 -0.941137
v 3.073842 2.244516 -0.290827
v 3.073843 3.554374 -0.290827
v 2.731955 2.244516 0.761396
v 2.731955 3.554374 0.761396
v 1.625582 2.244516 0.761395
v 1.625582 3.554374 0.761395
v 1.283695 2.244516 -0.290827
v 1.283694 3.554374 -0.290827
v 3.318216 3.554374 -0.370229
v 2.178768 3.554374 -1.198087
v 2.882986 3.554374 0.969272
v 1.474551 3.554374 0.969272
v 1.039320 3.554374 -0.370229
v 2.992282 4.057933 -0.264326
v 2.178768 4.057932 -0.855378
v 2.681547 4.057933 0.692016
v 1.675989 4.057932 0.692016
v 1.365255 4.057932 -0.264327
v 3.647190 -2.261626 -2.612916
v 2.994841 -2.719103 -2.612916
v 2.994841 -2.719103 -3.116003
v 2.994841 -2.261626 -3.116003
v 3.647190 -2.719103 -2.612916
v 2.994841 -2.261626 -2.612916
v 3.647190 -2.719103 -3.116003
v 3.647190 -2.261626 -3.116003
v 2.994842 -0.046134 -2.612916
v 3.647189 -0.046134 -2.612916
v 2.994841 -0.046134 -3.116003
v 3.647189 -0.046134 -3.116003
v 3.647189 -2.261626 2.612916
v 2.994842 -2.719103 2.612916
v 2.994842 -2.719103 3.116003
v 2.994842 -2.261626 3.116003
v 3.647189 -2.719103 2.612916
v 2.994842 -2.261626 2.612916
v 3.647189 -2.719103 3.116003
v 3.647189 -2.261626 3.116003
v 2.994842 -0.046134 2.612916
v 3.647189 -0.046134 2.612916
v 2.994842 -0.046134 3.116003
v 3.647190 -0.046134 3.116003
v -4.536481 -2.261626 -2.612915
v -3.884133 -2.719103 -2.612915
v -3.884133 -2.719103 -3.116003
v -3.884133 -2.261626 -3.116003
v -4.536482 -2.719103 -2.612915
v -3.884133 -2.261626 -2.612915
v -4.536482 -2.719103 -3.116003
v -4.536481 -2.261626 -3.116003
v -3.884133 -0.046134 -2.612915
v -4.536481 -0.046134 -2.612915
v -3.884133 -0.046134 -3.116003
v -4.536481 -0.046134 -3.116003
v -4.536481 -2.261626 2.612916
v -3.884133 -2.719103 2.612916
v -3.884133 -2.719103 3.116003
v -3.884133 -2.261626 3.116003
v -4.536481 -2.719103 2.612916
v -3.884133 -2.261626 2.612916
v -4.536481 -2.719103 3.116003
v -4.536481 -2.261626 3.116003
v -3.884132 -0.046134 2.612916
v -4.536480 -0.046134 2.612916
v -3.884132 -0.046134 3.116003
v -4.536480 -0.046134 3.116003
vt 0.800000 0.500000
vt 0.700000 0.500000
vt 0.800000 0.500000
vt -0.000000 0.500000
vt 0.100000 0.750000
vt 0.100000 0.500000
vt 0.200000 0.500000
vt 0.200000 0.750000
vt 0.300000 0.750000
vt 0.300000 0.500000
vt 0.400000 0.750000
vt 0.400000 0.500000
vt 0.500000 0.500000
vt 0.500000 0.750000
vt 0.600000 0.750000
vt 0.600000 0.500000
vt 0.700000 0.750000
vt 0.800000 0.750000
vt 0.900000 0.750000
vt 0.900000 0.500000
vt 1.000000 0.750000
vt 1.000000 0.500000
vt 0.608932 0.444164
vt 0.521746 0.175836
vt 0.978254 0.175836
vt 0.100000 0.500000
vt 0.500000 0.500000
vt 0.300000 0.500000
vt 0.900000 0.500000
vt 0.200000 0.500000
vt 0.700000 0.500000
vt 0.400000 0.500000
vt 0.700000 0.500000
vt 0.800000 0.500000
vt 0.800000 0.500000
vt 0.100000 0.500000
vt -0.000000 0.750000
vt -0.000000 0.500000
vt 0.200000 0.500000
vt 0.300000 0.500000
vt 0.400000 0.500000
vt 0.500000 0.500000
vt 0.600000 0.500000
vt 0.900000 0.500000
vt 1.000000 0.500000
vt 0.978254 0.175836
vt 0.521746 0.175836
vt 0.608932 0.444164
vt 0.100000 0.500000
vt 0.600000 0.500000
vt 0.300000 0.500000
vt 0.400000 0.500000
vt 0.900000 0.500000
vt 0.200000 0.500000
vt 0.700000 0.500000
vt 0.500000 0.500000
vt 1.000000 0.500000
vt 0.891068 0.444164
vt 0.750000 0.490000
vt 0.521746 0.324164
vt 0.608932 0.055836
vt 0.750000 0.010000
vt 0.891068 0.055836
vt 0.978254 0.324164
vt -0.000000 0.500000
vt 0.600000 0.500000
vt 1.000000 0.500000
vt 0.750000 0.490000
vt 0.891068 0.444164
vt 0.978254 0.324164
vt 0.891068 0.055836
vt 0.750000 0.010000
vt 0.608932 0.055836
vt 0.521746 0.324164
vt -0.000000 0.500000
vt 1.000000 0.500000
vt 0.800000 1.000000
vt 0.800000 0.500000
vt 0.600000 1.000000
vt 0.600000 0.500000
vt 0.400000 0.500000
vt 0.400000 1.000000
vt 0.600000 1.000000
vt 0.400000 1.000000
vt 0.200000 0.500000
vt 0.200000 1.000000
vt 0.000000 0.500000
vt 0.978254 0.324164
vt 0.608932 0.055836
vt 0.521746 0.324164
vt 0.000000 1.000000
vt 0.200000 1.000000
vt 0.000000 1.000000
vt 0.200000 1.000000
vt 0.800000 1.000000
vt 0.000000 1.000000
vt 1.000000 1.000000
vt 0.021746 0.324164
vt 0.108932 0.055836
vt 0.391068 0.055836
vt 0.400000 1.000000
vt 1.000000 1.000000
vt 0.800000 1.000000
vt 0.600000 1.000000
vt 1.000000 1.000000
vt 0.750000 0.490000
vt 0.891068 0.055836
vt 0.478254 0.324164
vt 0.250000 0.490000
vt 0.625000 0.187500
vt 0.375000 0.250000
vt 0.375000 0.187500
vt 0.625000 0.250000
vt 0.375000 0.500000
vt 0.625000 0.500000
vt 0.375000 0.562500
vt 0.625000 0.500000
vt 0.125000 0.562500
vt 0.125000 0.500000
vt 0.375000 0.562500
vt 0.125000 0.562500
vt 0.625000 0.562500
vt 0.375000 0.187500
vt 0.875000 0.562500
vt 0.625000 0.562500
vt 0.625000 0.562500
vt 0.875000 0.562500
vt 0.625000 0.250000
vt 0.375000 0.250000
vt 0.625000 0.187500
vt 0.375000 0.500000
vt 0.625000 0.250000
vt 0.625000 0.500000
vt 0.625000 0.500000
vt 0.125000 0.500000
vt 0.625000 0.562500
vt 0.875000 0.500000
vt 0.875000 0.562500
vt 0.875000 0.562500
vt 0.625000 0.250000
vt 0.375000 0.250000
vt 0.625000 0.187500
vt 0.375000 0.187500
vt 0.625000 0.500000
vt 0.625000 0.250000
vt 0.375000 0.562500
vt 0.375000 0.500000
vt 0.625000 0.500000
vt 0.125000 0.500000
vt 0.375000 0.562500
vt 0.125000 0.562500
vt 0.125000 0.562500
vt 0.625000 0.562500
vt 0.375000 0.187500
vt 0.625000 0.562500
vt 0.875000 0.500000
vt 0.875000 0.562500
vt 0.625000 0.562500
vt 0.625000 0.250000
vt 0.625000 0.187500
vt 0.375000 0.250000
vt 0.625000 0.250000
vt 0.375000 0.500000
vt 0.625000 0.500000
vt 0.625000 0.500000
vt 0.125000 0.500000
vt 0.875000 0.562500
vt 0.625000 0.562500
vt 0.875000 0.562500
vt 0.625000 0.187500
vt 0.625000 0.250000
vt 0.875000 0.500000
vt 0.625000 0.187500
vt 0.625000 0.187500
vt 0.875000 0.562500
vt 0.625000 0.187500
vt 0.875000 0.500000
vn 0.5607 0.0000 0.8280
vn -0.0000 -0.9511 -0.3090
vn -0.0000 -0.5878 -0.8090
vn -0.0000 0.0000 -1.0000
vn 0.0000 0.5878 -0.8090
vn 0.0000 0.9511 -0.3090
vn 0.0000 0.9511 0.3090
vn 0.0000 0.5878 0.8090
vn 0.0000 0.0000 1.0000
vn 0.0000 -0.5878 0.8090
vn -0.0000 -0.9511 0.3090
vn 1.0000 0.0000 0.0000
vn 0.5607 -0.7875 -0.2559
vn 0.5607 0.7875 0.2559
vn 0.5607 0.4867 -0.6699
vn 0.5607 -0.4867 0.6699
vn 0.5607 -0.4867 -0.6699
vn 0.5607 0.4867 0.6699
vn 0.5607 0.7875 -0.2559
vn 0.5607 -0.7875 0.2559
vn 0.5607 0.0000 -0.8280
vn -0.5607 0.0000 0.8280
vn -1.0000 0.0000 0.0000
vn -0.5607 -0.7875 -0.2559
vn -0.5607 0.7875 0.2559
vn -0.5607 0.4867 -0.6699
vn -0.5607 -0.4867 0.6699
vn -0.5607 -0.4867 -0.6699
vn -0.5607 0.4867 0.6699
vn -0.5607 0.7875 -0.2559
vn -0.5607 -0.7875 0.2559
vn -0.5607 0.0000 -0.8280
vn 0.5878 -0.0000 -0.8090
vn 0.9511 0.0000 0.3090
vn -0.0000 -1.0000 0.0000
vn -0.9511 0.0000 0.3090
vn -0.5878 0.0000 -0.8090
vn -0.5149 0.4823 -0.7087
vn -0.0000 1.0000 0.0000
vn 0.0000 0.4823 0.8760
vn 0.5149 0.4823 -0.7087
vn -0.8331 0.4823 0.2707
vn 0.8331 0.4823 0.2707
usemtl Red_GasTank
s off
f 13/1/1 4/2/1 3/3/1
f 1/4/2 40/5/2 10/6/2
f 9/7/3 40/5/3 39/8/3
f 9/7/4 38/9/4 8/10/4
f 8/10/5 37/11/5 7/12/5
f 6/13/6 37/11/6 36/14/6
f 6/13/7 35/15/7 5/16/7
f 5/16/8 34/17/8 4/2/8
f 4/2/9 33/18/9 3/3/9
f 3/3/10 32/19/10 2/20/10
f 2/20/11 31/21/11 1/22/11
f 20/23/12 18/24/12 14/25/12
f 20/26/13 1/4/13 10/6/13
f 5/16/14 16/27/14 6/13/14
f 7/12/15 18/28/15 8/10/15
f 12/29/16 3/3/16 2/20/16
f 19/30/17 10/6/17 9/7/17
f 14/31/18 5/16/18 4/2/18
f 6/13/19 17/32/19 7/12/19
f 1/22/20 12/29/20 2/20/20
f 8/10/21 19/30/21 9/7/21
f 24/33/22 43/34/22 23/35/22
f 30/36/2 31/37/2 21/38/2
f 39/8/3 30/36/3 29/39/3
f 38/9/4 29/39/4 28/40/4
f 37/11/5 28/40/5 27/41/5
f 36/14/6 27/41/6 26/42/6
f 35/15/7 26/42/7 25/43/7
f 34/17/8 25/43/8 24/33/8
f 23/35/9 34/17/9 24/33/9
f 32/19/10 23/35/10 22/44/10
f 31/21/11 22/44/11 21/45/11
f 44/46/23 48/47/23 50/48/23
f 21/38/24 50/49/24 30/36/24
f 26/42/25 45/50/25 25/43/25
f 27/41/26 48/51/26 47/52/26
f 22/44/27 43/34/27 42/53/27
f 30/36/28 49/54/28 29/39/28
f 25/43/29 44/55/29 24/33/29
f 27/41/30 46/56/30 26/42/30
f 22/44/31 41/57/31 21/45/31
f 29/39/32 48/51/32 28/40/32
f 13/1/1 14/31/1 4/2/1
f 1/4/2 31/37/2 40/5/2
f 9/7/3 10/6/3 40/5/3
f 9/7/4 39/8/4 38/9/4
f 8/10/5 38/9/5 37/11/5
f 6/13/6 7/12/6 37/11/6
f 6/13/7 36/14/7 35/15/7
f 5/16/8 35/15/8 34/17/8
f 4/2/9 34/17/9 33/18/9
f 3/3/10 33/18/10 32/19/10
f 2/20/11 32/19/11 31/21/11
f 12/58/12 11/59/12 20/23/12
f 20/23/12 19/60/12 18/24/12
f 18/24/12 17/61/12 14/25/12
f 17/61/12 16/62/12 14/25/12
f 16/62/12 15/63/12 14/25/12
f 14/25/12 13/64/12 12/58/12
f 12/58/12 20/23/12 14/25/12
f 20/26/13 11/65/13 1/4/13
f 5/16/14 15/66/14 16/27/14
f 7/12/15 17/32/15 18/28/15
f 12/29/16 13/1/16 3/3/16
f 19/30/17 20/26/17 10/6/17
f 14/31/18 15/66/18 5/16/18
f 6/13/19 16/27/19 17/32/19
f 1/22/20 11/67/20 12/29/20
f 8/10/21 18/28/21 19/30/21
f 24/33/22 44/55/22 43/34/22
f 30/36/2 40/5/2 31/37/2
f 39/8/3 40/5/3 30/36/3
f 38/9/4 39/8/4 29/39/4
f 37/11/5 38/9/5 28/40/5
f 36/14/6 37/11/6 27/41/6
f 35/15/7 36/14/7 26/42/7
f 34/17/8 35/15/8 25/43/8
f 23/35/9 33/18/9 34/17/9
f 32/19/10 33/18/10 23/35/10
f 31/21/11 32/19/11 22/44/11
f 50/48/23 41/68/23 42/69/23
f 42/69/23 43/70/23 44/46/23
f 44/46/23 45/71/23 46/72/23
f 46/72/23 47/73/23 44/46/23
f 47/73/23 48/47/23 44/46/23
f 48/47/23 49/74/23 50/48/23
f 50/48/23 42/69/23 44/46/23
f 21/38/24 41/75/24 50/49/24
f 26/42/25 46/56/25 45/50/25
f 27/41/26 28/40/26 48/51/26
f 22/44/27 23/35/27 43/34/27
f 30/36/28 50/49/28 49/54/28
f 25/43/29 45/50/29 44/55/29
f 27/41/30 47/52/30 46/56/30
f 22/44/31 42/53/31 41/57/31
f 29/39/32 49/54/32 48/51/32
usemtl Gray_GasTank
f 51/76/33 54/77/33 53/78/33
f 53/78/34 56/79/34 55/80/34
f 56/79/9 57/81/9 55/80/9
f 58/82/35 63/83/35 64/84/35
f 58/82/36 59/85/36 57/81/36
f 60/86/37 51/87/37 59/85/37
f 53/88/35 57/89/35 59/90/35
f 62/91/38 70/92/38 67/93/38
f 58/82/35 65/94/35 60/86/35
f 56/79/35 61/95/35 63/83/35
f 60/86/35 62/91/35 52/96/35
f 54/77/35 62/97/35 61/95/35
f 70/98/39 69/99/39 68/100/39
f 63/83/40 69/101/40 64/84/40
f 61/95/41 67/102/41 66/103/41
f 64/84/42 70/92/42 65/94/42
f 61/95/43 68/104/43 63/83/43
f 51/76/33 52/105/33 54/77/33
f 53/78/34 54/77/34 56/79/34
f 56/79/9 58/82/9 57/81/9
f 58/82/35 56/79/35 63/83/35
f 58/82/36 60/86/36 59/85/36
f 60/86/37 52/96/37 51/87/37
f 59/90/35 51/106/35 53/88/35
f 53/88/35 55/107/35 57/89/35
f 62/91/38 65/94/38 70/92/38
f 58/82/35 64/84/35 65/94/35
f 56/79/35 54/77/35 61/95/35
f 60/86/35 65/94/35 62/91/35
f 54/77/35 52/105/35 62/97/35
f 68/100/39 66/108/39 67/109/39
f 67/109/39 70/98/39 68/100/39
f 63/83/40 68/104/40 69/101/40
f 61/95/41 62/97/41 67/102/41
f 64/84/42 69/101/42 70/92/42
f 61/95/43 66/103/43 68/104/43
usemtl Black_GasTank
f 76/110/23 73/111/23 72/112/23
f 74/113/4 77/114/4 73/111/4
f 78/115/12 75/116/12 77/114/12
f 74/113/4 82/117/4 78/115/4
f 77/114/35 72/118/35 73/119/35
f 72/118/35 87/120/35 84/121/35
f 75/116/12 83/122/12 87/120/12
f 84/123/23 76/110/23 72/112/23
f 82/117/39 79/124/39 80/125/39
f 71/126/9 79/124/9 76/127/9
f 76/110/23 81/128/23 74/113/23
f 71/126/12 82/117/12 80/125/12
f 85/129/23 88/130/23 84/123/23
f 89/131/9 86/132/9 85/129/9
f 87/120/12 90/133/12 89/131/12
f 94/134/9 86/132/9 90/133/9
f 84/121/35 89/131/35 85/135/35
f 92/136/39 93/137/39 94/134/39
f 91/138/4 83/122/4 88/139/4
f 93/140/23 88/130/23 86/132/23
f 92/136/12 90/133/12 83/122/12
f 71/126/39 88/139/39 83/122/39
f 97/141/12 100/142/12 96/143/12
f 97/141/4 102/144/4 98/145/4
f 99/146/23 102/144/23 101/147/23
f 106/148/4 98/145/4 102/144/4
f 97/149/35 99/146/35 101/147/35
f 111/150/35 96/151/35 108/152/35
f 107/153/23 99/146/23 111/150/23
f 100/142/12 108/154/12 96/143/12
f 104/155/39 105/156/39 106/148/39
f 100/157/9 104/155/9 95/158/9
f 105/159/12 100/142/12 98/145/12
f 95/158/23 106/148/23 102/144/23
f 112/160/12 109/161/12 108/154/12
f 110/162/9 113/163/9 109/161/9
f 114/164/23 111/150/23 113/163/23
f 110/162/9 118/165/9 114/164/9
f 113/163/35 108/152/35 109/166/35
f 118/165/39 115/167/39 116/168/39
f 112/169/4 116/168/4 115/167/4
f 110/162/12 115/170/12 117/171/12
f 107/153/23 118/165/23 116/168/23
f 112/169/39 95/158/39 107/153/39
f 76/110/23 74/113/23 73/111/23
f 74/113/4 78/115/4 77/114/4
f 78/115/12 71/126/12 75/116/12
f 74/113/4 81/128/4 82/117/4
f 77/114/35 75/116/35 72/118/35
f 72/118/35 75/116/35 87/120/35
f 75/116/12 71/126/12 83/122/12
f 84/123/23 88/130/23 76/110/23
f 82/117/39 81/172/39 79/124/39
f 71/126/9 80/125/9 79/124/9
f 76/110/23 79/173/23 81/128/23
f 71/126/12 78/115/12 82/117/12
f 85/129/23 86/132/23 88/130/23
f 89/131/9 90/133/9 86/132/9
f 87/120/12 83/122/12 90/133/12
f 94/134/9 93/140/9 86/132/9
f 84/121/35 87/120/35 89/131/35
f 92/136/39 91/138/39 93/137/39
f 91/138/4 92/136/4 83/122/4
f 93/140/23 91/174/23 88/130/23
f 92/136/12 94/134/12 90/133/12
f 71/126/39 76/127/39 88/139/39
f 97/141/12 98/145/12 100/142/12
f 97/141/4 101/147/4 102/144/4
f 99/146/23 95/158/23 102/144/23
f 106/148/4 105/159/4 98/145/4
f 97/149/35 96/151/35 99/146/35
f 111/150/35 99/146/35 96/151/35
f 107/153/23 95/158/23 99/146/23
f 100/142/12 112/160/12 108/154/12
f 104/155/39 103/175/39 105/156/39
f 100/157/9 103/175/9 104/155/9
f 105/159/12 103/176/12 100/142/12
f 95/158/23 104/155/23 106/148/23
f 112/160/12 110/162/12 109/161/12
f 110/162/9 114/164/9 113/163/9
f 114/164/23 107/153/23 111/150/23
f 110/162/9 117/171/9 118/165/9
f 113/163/35 111/150/35 108/152/35
f 118/165/39 117/177/39 115/167/39
f 112/169/4 107/153/4 116/168/4
f 110/162/12 112/160/12 115/170/12
f 107/153/23 114/164/23 118/165/23
f 112/169/39 100/157/39 95/158/39
