# Blender v2.90.0 OBJ File: 'GateKeeperStation.blend'
# www.blender.org
mtllib GateKeeperStation.mtl
o GateKeeperStation_Cube.067
v 2.753277 -1.129727 -2.544438
v 2.693731 -1.129727 -2.603984
v 2.693731 2.172016 -2.603984
v 2.753277 2.172016 -2.544438
v 2.693731 -1.129727 -3.052490
v 2.753277 -1.129727 -3.112036
v 2.753277 2.172016 -3.112036
v 2.693731 2.172016 -3.052490
v 3.261329 -1.129727 -2.603984
v 3.201783 -1.129727 -2.544438
v 3.201783 2.172016 -2.544438
v 3.261329 2.172016 -2.603984
v 3.201783 -1.129727 -3.112036
v 3.261329 -1.129727 -3.052490
v 3.261329 2.172016 -3.052490
v 3.201783 2.172016 -3.112036
v -2.740783 -1.129727 -2.544438
v -2.681237 -1.129727 -2.603984
v -2.681237 2.172016 -2.603984
v -2.740783 2.172016 -2.544438
v -2.681237 -1.129727 -3.052490
v -2.740783 -1.129727 -3.112036
v -2.740783 2.172016 -3.112036
v -2.681237 2.172016 -3.052490
v -3.248835 -1.129727 -2.603984
v -3.189288 -1.129727 -2.544438
v -3.189288 2.172016 -2.544438
v -3.248835 2.172016 -2.603984
v -3.189288 -1.129727 -3.112036
v -3.248835 -1.129727 -3.052490
v -3.248835 2.172016 -3.052490
v -3.189288 2.172016 -3.112036
v 2.753277 -1.129727 2.544438
v 2.693731 -1.129727 2.603985
v 2.693731 2.172016 2.603985
v 2.753277 2.172016 2.544438
v 2.693731 -1.129727 3.052490
v 2.753277 -1.129727 3.112037
v 2.753277 2.172016 3.112037
v 2.693731 2.172016 3.052490
v 3.261329 -1.129727 2.603985
v 3.201783 -1.129727 2.544438
v 3.201783 2.172016 2.544438
v 3.261329 2.172016 2.603985
v 3.201783 -1.129727 3.112037
v 3.261329 -1.129727 3.052490
v 3.261329 2.172016 3.052490
v 3.201783 2.172016 3.112037
v -2.740783 -1.129727 2.544438
v -2.681237 -1.129727 2.603985
v -2.681237 2.172016 2.603985
v -2.740783 2.172016 2.544438
v -2.681237 -1.129727 3.052490
v -2.740783 -1.129727 3.112037
v -2.740783 2.172016 3.112037
v -2.681237 2.172016 3.052490
v -3.248835 -1.129727 2.603985
v -3.189288 -1.129727 2.544438
v -3.189288 2.172016 2.544438
v -3.248835 2.172016 2.603985
v -3.189288 -1.129727 3.112037
v -3.248835 -1.129727 3.052490
v -3.248835 2.172016 3.052490
v -3.189288 2.172016 3.112037
v -3.315344 -1.675639 3.193068
v -2.587976 -1.510923 2.493840
v -3.315344 -1.675639 -3.193067
v -2.587976 -1.510923 -2.493840
v 3.327805 -1.675639 3.193068
v 2.600437 -1.510923 2.493840
v 3.327805 -1.675639 -3.193067
v 2.600437 -1.510923 -2.493840
v -3.315344 -1.510923 3.193068
v -3.315344 -1.510923 -3.193067
v 3.327805 -1.510923 -3.193067
v 3.327805 -1.510923 3.193068
v 1.213689 -1.675639 -3.193067
v 1.213689 -1.510923 -3.193067
v 1.213689 -1.675639 3.193068
v 1.213689 -1.510923 3.193068
v 1.068215 -1.510923 -2.493840
v 1.068215 -1.510923 2.493840
v -1.322400 -1.675639 -3.193067
v -1.322400 -1.510923 3.193068
v -1.031452 -1.510923 2.493840
v -1.322400 -1.510923 -3.193067
v -1.322400 -1.675639 3.193068
v -1.031452 -1.510923 -2.493840
v -3.315344 -0.849495 3.193068
v -3.171475 -0.845928 3.054765
v -3.171475 -0.845928 -3.054764
v -3.315344 -0.849495 -3.193067
v 3.183936 -0.845928 -3.054764
v 3.327805 -0.849495 -3.193067
v 3.183936 -0.845928 3.054765
v 3.327805 -0.849495 3.193068
v -2.731845 -0.845928 2.632144
v -2.587976 -0.849495 2.493840
v -2.587976 -0.849495 -2.493840
v -2.731845 -0.845928 -2.632143
v 2.600437 -0.849495 -2.493840
v 2.744306 -0.845928 -2.632143
v 2.600437 -0.849495 2.493840
v 2.744306 -0.845928 2.632144
v 1.184915 -0.845928 -3.054764
v 1.213689 -0.849495 -3.193067
v 1.184915 -0.845928 3.054765
v 1.213689 -0.849495 3.193068
v 1.068215 -0.849495 -2.493840
v 1.096989 -0.845928 -2.632143
v 1.068215 -0.849495 2.493840
v 1.096989 -0.845928 2.632144
v -1.322400 -0.849495 3.193068
v -1.264852 -0.845928 3.054765
v -1.089000 -0.845928 2.632144
v -1.031452 -0.849495 2.493840
v -1.322400 -0.849495 -3.193067
v -1.264851 -0.845928 -3.054764
v -1.089000 -0.845928 -2.632143
v -1.031452 -0.849495 -2.493840
v -3.823151 2.153354 3.829382
v -3.491929 3.036550 3.498159
v -3.823151 2.153354 -3.829381
v -3.491929 3.036550 -3.498159
v 3.835612 2.153354 3.829382
v 3.504389 3.036550 3.498159
v 3.835612 2.153354 -3.829381
v 3.504389 3.036550 -3.498159
v -3.823151 2.648457 3.829382
v -3.823151 2.648457 -3.829381
v 3.835612 2.648457 -3.829381
v 3.835612 2.648457 3.829382
vt 0.625000 0.776227
vt 0.375000 0.973773
vt 0.375000 0.776227
vt 0.625000 0.526227
vt 0.375000 0.723773
vt 0.375000 0.526227
vt 0.848773 0.750000
vt 0.651227 0.750000
vt 0.625000 0.723773
vt 0.625000 0.026227
vt 0.375000 0.223773
vt 0.375000 0.026227
vt 0.625000 0.276227
vt 0.375000 0.473773
vt 0.375000 0.276227
vt 0.625000 0.000000
vt 0.375000 0.000000
vt 0.625000 0.223773
vt 0.625000 0.473773
vt 0.348773 0.750000
vt 0.151227 0.750000
vt 0.125000 0.723773
vt 0.375000 0.973773
vt 0.625000 0.776227
vt 0.375000 0.776227
vt 0.375000 0.723773
vt 0.625000 0.526227
vt 0.375000 0.526227
vt 0.848773 0.500000
vt 0.651227 0.500000
vt 0.848773 0.750000
vt 0.375000 0.223773
vt 0.625000 0.026227
vt 0.375000 0.026227
vt 0.375000 0.473773
vt 0.625000 0.276227
vt 0.375000 0.276227
vt 0.625000 0.000000
vt 0.375000 0.000000
vt 0.625000 0.223773
vt 0.625000 0.473773
vt 0.625000 0.723773
vt 0.348773 0.500000
vt 0.151227 0.500000
vt 0.348773 0.750000
vt 0.375000 0.973773
vt 0.625000 0.776227
vt 0.375000 0.776227
vt 0.375000 0.723773
vt 0.625000 0.526227
vt 0.375000 0.526227
vt 0.875000 0.526227
vt 0.848773 0.500000
vt 0.651227 0.500000
vt 0.375000 0.223773
vt 0.625000 0.026227
vt 0.375000 0.026227
vt 0.375000 0.473773
vt 0.625000 0.276227
vt 0.375000 0.276227
vt 0.625000 0.000000
vt 0.375000 0.000000
vt 0.625000 0.223773
vt 0.625000 0.473773
vt 0.625000 0.723773
vt 0.125000 0.723773
vt 0.348773 0.750000
vt 0.625000 0.776227
vt 0.375000 0.973773
vt 0.375000 0.776227
vt 0.625000 0.526227
vt 0.375000 0.723773
vt 0.375000 0.526227
vt 0.651227 0.750000
vt 0.625000 0.723773
vt 0.875000 0.526227
vt 0.625000 0.026227
vt 0.375000 0.223773
vt 0.375000 0.026227
vt 0.625000 0.276227
vt 0.375000 0.473773
vt 0.375000 0.276227
vt 0.625000 0.000000
vt 0.375000 0.000000
vt 0.625000 0.223773
vt 0.625000 0.473773
vt 0.151227 0.750000
vt 0.125000 0.723773
vt 0.625000 0.973773
vt 0.875000 0.526227
vt 0.651227 0.500000
vt 0.848773 0.500000
vt 0.875000 0.723773
vt 0.125000 0.526227
vt 0.151227 0.500000
vt 0.348773 0.500000
vt 0.625000 0.973773
vt 0.651227 0.750000
vt 0.875000 0.723773
vt 0.875000 0.526227
vt 0.125000 0.526227
vt 0.125000 0.723773
vt 0.151227 0.750000
vt 0.625000 0.973773
vt 0.848773 0.750000
vt 0.651227 0.750000
vt 0.875000 0.723773
vt 0.151227 0.500000
vt 0.125000 0.526227
vt 0.151227 0.750000
vt 0.348773 0.500000
vt 0.625000 0.973773
vt 0.651227 0.500000
vt 0.848773 0.500000
vt 0.875000 0.723773
vt 0.848773 0.750000
vt 0.125000 0.526227
vt 0.151227 0.500000
vt 0.348773 0.500000
vt 0.348773 0.750000
vt 0.625000 0.000000
vt 0.375000 0.250000
vt 0.375000 0.000000
vt 0.625000 0.400000
vt 0.375000 0.500000
vt 0.375000 0.400000
vt 0.625000 0.500000
vt 0.375000 0.750000
vt 0.625000 0.925000
vt 0.375000 1.000000
vt 0.375000 0.925000
vt 0.275000 0.750000
vt 0.275000 0.500000
vt 0.859355 0.515645
vt 0.793742 0.734355
vt 0.793742 0.515645
vt 0.862449 0.737449
vt 0.798762 0.746905
vt 0.794980 0.737449
vt 0.640645 0.734355
vt 0.640645 0.515645
vt 0.640645 0.515645
vt 0.859355 0.515645
vt 0.637551 0.737449
vt 0.628095 0.503095
vt 0.637551 0.512551
vt 0.625000 1.000000
vt 0.625000 1.000000
vt 0.625000 0.750000
vt 0.625000 0.750000
vt 0.625000 0.850000
vt 0.625000 0.850000
vt 0.862449 0.512551
vt 0.798762 0.503095
vt 0.871905 0.503095
vt 0.725619 0.746905
vt 0.628095 0.746905
vt 0.625000 0.500000
vt 0.728129 0.734355
vt 0.640645 0.734355
vt 0.859355 0.734355
vt 0.793742 0.734355
vt 0.725619 0.503095
vt 0.727510 0.512551
vt 0.727510 0.737449
vt 0.859355 0.734355
vt 0.728129 0.515645
vt 0.728129 0.515645
vt 0.200000 0.750000
vt 0.200000 0.500000
vt 0.375000 0.850000
vt 0.625000 0.325000
vt 0.375000 0.325000
vt 0.625000 0.250000
vt 0.125000 0.750000
vt 0.125000 0.500000
vt 0.625000 0.325000
vt 0.625000 0.250000
vt 0.728129 0.734355
vt 0.799061 0.499061
vt 0.625000 0.925000
vt 0.625000 0.244586
vt 0.625000 0.000000
vt 0.625000 0.005414
vt 0.625000 0.493195
vt 0.625000 0.400000
vt 0.625000 0.400000
vt 0.625000 0.994586
vt 0.625000 0.925000
vt 0.625000 0.756805
vt 0.625000 0.923298
vt 0.625000 0.850851
vt 0.625000 0.255414
vt 0.794980 0.512551
vt 0.871905 0.746905
vt 0.793742 0.515645
vt 0.724464 0.499464
vt 0.625000 0.850000
vt 0.625000 0.325000
vt 0.625000 0.000000
vt 0.375000 0.250000
vt 0.375000 0.000000
vt 0.625000 0.250000
vt 0.375000 0.500000
vt 0.625000 0.500000
vt 0.375000 0.750000
vt 0.625000 0.750000
vt 0.375000 1.000000
vt 0.125000 0.750000
vt 0.125000 0.500000
vt 0.864188 0.510812
vt 0.635812 0.739188
vt 0.635812 0.510812
vt 0.875000 0.750000
vt 0.864188 0.739188
vt 0.875000 0.500000
vt 0.625000 1.000000
vn 0.0000 0.0000 1.0000
vn 1.0000 0.0000 0.0000
vn 0.0000 1.0000 0.0000
vn -1.0000 0.0000 0.0000
vn 0.0000 0.0000 -1.0000
vn -0.7071 0.0000 0.7071
vn -0.7071 0.0000 -0.7071
vn 0.7071 0.0000 -0.7071
vn 0.7071 0.0000 0.7071
vn 0.0000 -1.0000 0.0000
vn -0.9790 0.0000 -0.2037
vn 0.9233 0.0000 -0.3842
vn -0.0248 0.9997 0.0000
vn 0.0000 0.9997 -0.0258
vn 0.0248 0.9997 0.0000
vn 0.0000 0.9997 0.0258
vn -0.7606 0.6492 0.0000
vn 0.0000 0.6492 -0.7606
vn 0.7606 0.6492 0.0000
vn 0.0000 0.6492 0.7606
usemtl Gray_Gatekeeper
s off
f 11/1/1 1/2/1 10/3/1
f 15/4/2 9/5/2 14/6/2
f 4/7/3 11/8/3 12/9/3
f 3/10/4 5/11/4 2/12/4
f 7/13/5 13/14/5 6/15/5
f 4/16/6 2/12/6 1/17/6
f 6/15/7 8/18/7 7/13/7
f 14/6/8 16/19/8 15/4/8
f 10/3/9 12/9/9 11/1/9
f 10/20/10 1/21/10 2/22/10
f 17/23/1 27/24/1 26/25/1
f 25/26/4 31/27/4 30/28/4
f 23/29/3 32/30/3 20/31/3
f 21/32/2 19/33/2 18/34/2
f 29/35/5 23/36/5 22/37/5
f 18/34/9 20/38/9 17/39/9
f 24/40/8 22/37/8 23/36/8
f 32/41/7 30/28/7 31/27/7
f 28/42/6 26/25/6 27/24/6
f 29/43/10 22/44/10 26/45/10
f 33/46/5 43/47/5 42/48/5
f 41/49/2 47/50/2 46/51/2
f 40/52/3 39/53/3 48/54/3
f 37/55/4 35/56/4 34/57/4
f 45/58/1 39/59/1 38/60/1
f 34/57/7 36/61/7 33/62/7
f 40/63/6 38/60/6 39/59/6
f 48/64/9 46/51/9 47/50/9
f 44/65/8 42/48/8 43/47/8
f 34/66/10 42/67/10 46/51/10
f 59/68/5 49/69/5 58/70/5
f 63/71/4 57/72/4 62/73/4
f 59/74/3 60/75/3 56/76/3
f 51/77/2 53/78/2 50/79/2
f 55/80/1 61/81/1 54/82/1
f 52/83/8 50/79/8 49/84/8
f 54/82/9 56/85/9 55/80/9
f 62/73/6 64/86/6 63/71/6
f 58/70/7 60/75/7 59/68/7
f 49/87/10 50/88/10 62/73/10
f 11/1/1 4/89/1 1/2/1
f 15/4/2 12/9/2 9/5/2
f 12/9/3 15/4/3 8/90/3
f 15/4/3 16/91/3 8/90/3
f 16/91/3 7/92/3 8/90/3
f 8/90/3 3/93/3 12/9/3
f 3/93/3 4/7/3 12/9/3
f 3/10/4 8/18/4 5/11/4
f 7/13/5 16/19/5 13/14/5
f 4/16/6 3/10/6 2/12/6
f 6/15/7 5/11/7 8/18/7
f 14/6/8 13/14/8 16/19/8
f 10/3/9 9/5/9 12/9/9
f 2/22/10 5/94/10 14/6/10
f 5/94/10 6/95/10 14/6/10
f 6/95/10 13/96/10 14/6/10
f 14/6/10 9/5/10 2/22/10
f 9/5/10 10/20/10 2/22/10
f 17/23/1 20/97/1 27/24/1
f 25/26/4 28/42/4 31/27/4
f 32/30/3 31/27/3 28/42/3
f 28/42/3 27/98/3 32/30/3
f 27/98/3 20/31/3 32/30/3
f 20/31/3 19/99/3 24/100/3
f 24/100/3 23/29/3 20/31/3
f 21/32/2 24/40/2 19/33/2
f 29/35/5 32/41/5 23/36/5
f 18/34/9 19/33/9 20/38/9
f 24/40/8 21/32/8 22/37/8
f 32/41/7 29/35/7 30/28/7
f 28/42/6 25/26/6 26/25/6
f 22/44/10 21/101/10 18/102/10
f 18/102/10 17/103/10 22/44/10
f 17/103/10 26/45/10 22/44/10
f 26/45/10 25/26/10 30/28/10
f 30/28/10 29/43/10 26/45/10
f 33/46/5 36/104/5 43/47/5
f 41/49/2 44/65/2 47/50/2
f 48/54/3 47/50/3 36/105/3
f 47/50/3 44/65/3 36/105/3
f 44/65/3 43/106/3 36/105/3
f 36/105/3 35/107/3 48/54/3
f 35/107/3 40/52/3 48/54/3
f 37/55/4 40/63/4 35/56/4
f 45/58/1 48/64/1 39/59/1
f 34/57/7 35/56/7 36/61/7
f 40/63/6 37/55/6 38/60/6
f 48/64/9 45/58/9 46/51/9
f 44/65/8 41/49/8 42/48/8
f 38/108/10 37/109/10 34/66/10
f 34/66/10 33/110/10 42/67/10
f 42/67/10 41/49/10 46/51/10
f 46/51/10 45/111/10 38/108/10
f 38/108/10 34/66/10 46/51/10
f 59/68/5 52/112/5 49/69/5
f 63/71/4 60/75/4 57/72/4
f 60/75/3 63/71/3 64/113/3
f 64/113/3 55/114/3 60/75/3
f 55/114/3 56/76/3 60/75/3
f 56/76/3 51/115/3 52/116/3
f 52/116/3 59/74/3 56/76/3
f 51/77/2 56/85/2 53/78/2
f 55/80/1 64/86/1 61/81/1
f 52/83/8 51/77/8 50/79/8
f 54/82/9 53/78/9 56/85/9
f 62/73/6 61/81/6 64/86/6
f 58/70/7 57/72/7 60/75/7
f 50/88/10 53/117/10 54/118/10
f 54/118/10 61/119/10 50/88/10
f 61/119/10 62/73/10 50/88/10
f 62/73/10 57/72/10 58/120/10
f 58/120/10 49/87/10 62/73/10
usemtl Black_Gatekeeper
f 73/121/4 67/122/4 65/123/4
f 78/124/5 71/125/5 77/126/5
f 75/127/2 69/128/2 71/125/2
f 84/129/1 65/130/1 87/131/1
f 71/125/10 79/132/10 77/133/10
f 68/134/3 85/135/3 88/136/3
f 97/137/3 114/138/3 115/139/3
f 70/140/4 101/141/4 72/142/4
f 88/136/1 99/143/1 68/134/1
f 104/144/3 93/145/3 102/146/3
f 84/129/1 89/147/1 73/148/1
f 75/127/2 96/149/2 76/150/2
f 76/150/1 108/151/1 80/152/1
f 100/153/3 118/154/3 91/155/3
f 104/144/3 107/156/3 95/157/3
f 78/124/5 94/158/5 75/127/5
f 82/159/5 103/160/5 70/140/5
f 66/161/5 116/162/5 85/135/5
f 102/146/3 105/163/3 110/164/3
f 115/139/3 107/156/3 112/165/3
f 68/134/2 98/166/2 66/161/2
f 81/167/11 109/168/11 110/164/11
f 81/167/3 70/140/3 72/142/3
f 77/133/10 87/169/10 83/170/10
f 76/150/1 79/171/1 69/128/1
f 86/172/5 77/126/5 83/173/5
f 74/174/5 83/173/5 67/122/5
f 83/170/10 65/175/10 67/176/10
f 72/142/1 109/168/1 81/167/1
f 74/174/5 117/177/5 86/172/5
f 73/121/4 92/178/4 74/174/4
f 85/135/5 111/179/5 82/159/5
f 86/172/12 117/180/12 118/154/12
f 88/136/3 82/159/3 81/167/3
f 80/152/1 87/131/1 79/171/1
f 78/124/3 88/136/3 81/167/3
f 80/152/1 113/181/1 84/129/1
f 91/182/13 89/183/13 90/184/13
f 93/185/14 106/186/14 105/187/14
f 95/157/15 94/158/15 93/145/15
f 90/188/16 113/181/16 114/189/16
f 98/166/15 100/153/15 97/137/15
f 101/141/16 110/164/16 109/168/16
f 103/160/13 102/146/13 101/141/13
f 98/166/14 115/139/14 116/162/14
f 95/190/16 108/151/16 96/149/16
f 103/160/14 112/165/14 104/144/14
f 114/191/16 108/151/16 107/192/16
f 116/162/14 112/165/14 111/179/14
f 91/193/14 117/177/14 92/178/14
f 99/143/16 119/194/16 100/153/16
f 100/153/3 90/195/3 97/137/3
f 73/121/4 74/174/4 67/122/4
f 78/124/5 75/127/5 71/125/5
f 75/127/2 76/150/2 69/128/2
f 84/129/1 73/148/1 65/130/1
f 71/125/10 69/128/10 79/132/10
f 68/134/3 66/161/3 85/135/3
f 97/137/3 90/195/3 114/138/3
f 70/140/4 103/160/4 101/141/4
f 88/136/1 120/196/1 99/143/1
f 104/144/3 95/157/3 93/145/3
f 84/129/1 113/181/1 89/147/1
f 75/127/2 94/158/2 96/149/2
f 76/150/1 96/149/1 108/151/1
f 100/153/3 119/194/3 118/154/3
f 104/144/3 112/165/3 107/156/3
f 78/124/5 106/186/5 94/158/5
f 82/159/5 111/179/5 103/160/5
f 66/161/5 98/166/5 116/162/5
f 102/146/3 93/145/3 105/163/3
f 115/139/3 114/138/3 107/156/3
f 68/134/2 99/143/2 98/166/2
f 110/164/11 105/163/11 81/167/11
f 105/163/11 106/197/11 78/124/11
f 81/167/11 105/163/11 78/124/11
f 81/167/3 82/159/3 70/140/3
f 77/133/10 79/132/10 87/169/10
f 76/150/1 80/152/1 79/171/1
f 86/172/5 78/124/5 77/126/5
f 74/174/5 86/172/5 83/173/5
f 83/170/10 87/169/10 65/175/10
f 72/142/1 101/141/1 109/168/1
f 74/174/5 92/178/5 117/177/5
f 73/121/4 89/183/4 92/178/4
f 85/135/5 116/162/5 111/179/5
f 118/154/12 119/194/12 86/172/12
f 119/194/12 120/196/12 88/136/12
f 86/172/12 119/194/12 88/136/12
f 88/136/3 85/135/3 82/159/3
f 80/152/1 84/129/1 87/131/1
f 78/124/3 86/172/3 88/136/3
f 80/152/1 108/151/1 113/181/1
f 91/182/13 92/178/13 89/183/13
f 93/185/14 94/158/14 106/186/14
f 95/157/15 96/149/15 94/158/15
f 90/188/16 89/147/16 113/181/16
f 98/166/15 99/143/15 100/153/15
f 101/141/16 102/146/16 110/164/16
f 103/160/13 104/144/13 102/146/13
f 98/166/14 97/137/14 115/139/14
f 95/190/16 107/198/16 108/151/16
f 103/160/14 111/179/14 112/165/14
f 114/191/16 113/181/16 108/151/16
f 116/162/14 115/139/14 112/165/14
f 91/193/14 118/199/14 117/177/14
f 99/143/16 120/196/16 119/194/16
f 100/153/3 91/155/3 90/195/3
usemtl DarkGreen_Gatekeeper
f 129/200/4 123/201/4 121/202/4
f 130/203/5 127/204/5 123/201/5
f 131/205/2 125/206/2 127/204/2
f 132/207/1 121/208/1 125/206/1
f 127/204/10 121/209/10 123/210/10
f 124/211/3 126/212/3 128/213/3
f 124/211/17 129/214/17 122/215/17
f 128/213/18 130/216/18 124/211/18
f 126/212/19 131/205/19 128/213/19
f 122/215/20 132/207/20 126/212/20
f 129/200/4 130/203/4 123/201/4
f 130/203/5 131/205/5 127/204/5
f 131/205/2 132/207/2 125/206/2
f 132/207/1 129/217/1 121/208/1
f 127/204/10 125/206/10 121/209/10
f 124/211/3 122/215/3 126/212/3
f 124/211/17 130/216/17 129/214/17
f 128/213/18 131/205/18 130/216/18
f 126/212/19 132/207/19 131/205/19
f 122/215/20 129/214/20 132/207/20
