# Blender v2.90.0 OBJ File: 'LightPole.blend'
# www.blender.org
mtllib LightPole.mtl
o LightPole_Cube.088
v -0.582566 4.295612 4.520894
v -0.801333 4.946899 4.674026
v -0.353202 4.295612 2.428782
v -0.520122 4.946899 2.275650
v 0.582566 4.295612 4.520894
v 0.801333 4.946899 4.674026
v 0.353202 4.295612 2.428782
v 0.520122 4.946899 2.275650
v -0.520122 4.295612 2.275650
v -0.801333 4.295612 4.674026
v 0.520122 4.295612 2.275650
v 0.801333 4.295612 4.674026
v -0.353202 4.423407 2.428782
v -0.582566 4.423407 4.520894
v 0.353202 4.423407 2.428782
v 0.582566 4.423407 4.520894
v -0.000000 -7.131349 -2.421199
v -0.000000 -6.918427 -2.269751
v 0.612079 -7.131349 -1.976497
v 0.468044 -6.918427 -1.929697
v 0.378285 -7.131349 -1.256955
v 0.289267 -6.918427 -1.379479
v -0.378286 -7.131349 -1.256955
v -0.289267 -6.918427 -1.379479
v -0.612079 -7.131349 -1.976497
v -0.468043 -6.918427 -1.929697
v 0.612079 -6.918427 -1.976497
v -0.000000 -6.918427 -2.421199
v 0.378285 -6.918427 -1.256955
v -0.378286 -6.918427 -1.256955
v -0.612079 -6.918427 -1.976497
v 0.281840 -5.545328 -1.869196
v -0.000000 -5.545328 -2.073965
v 0.174186 -5.545328 -1.537874
v -0.174186 -5.545328 -1.537874
v -0.281840 -5.545328 -1.869196
v 0.468044 -5.545328 -1.929697
v -0.000000 -5.545328 -2.269751
v 0.289267 -5.545328 -1.379479
v -0.289267 -5.545328 -1.379479
v -0.468043 -5.545328 -1.929697
v 0.281840 4.061815 -1.867710
v -0.000000 4.098558 -2.069155
v 0.174186 4.002362 -1.541765
v -0.174186 4.002362 -1.541765
v -0.281840 4.061815 -1.867710
v 0.281840 4.712771 -1.152693
v -0.000000 4.917408 -1.160068
v 0.174186 4.381664 -1.140759
v -0.174186 4.381664 -1.140759
v -0.281840 4.712771 -1.152693
v 0.281840 4.712757 2.314791
v -0.000000 4.917359 2.323047
v 0.174186 4.381704 2.301432
v -0.174186 4.381704 2.301432
v -0.281840 4.712757 2.314791
v -0.369319 4.461143 -1.675859
v -0.000000 4.593963 -1.810931
v 0.228251 4.246232 -1.457310
v -0.228252 4.246232 -1.457310
v 0.369319 4.461142 -1.675859
vt 0.625000 0.000000
vt 0.375000 0.250000
vt 0.375000 0.000000
vt 0.625000 0.250000
vt 0.375000 0.500000
vt 0.625000 0.500000
vt 0.375000 0.750000
vt 0.625000 0.750000
vt 0.375000 1.000000
vt 0.156438 0.725081
vt 0.343562 0.725081
vt 0.343562 0.725081
vt 0.875000 0.500000
vt 0.125000 0.500000
vt 0.168423 0.524919
vt 0.331577 0.524919
vt 0.125000 0.750000
vt 0.168423 0.524919
vt 0.331577 0.524919
vt 0.156438 0.725081
vt 1.000000 1.000000
vt 0.800000 0.500000
vt 1.000000 0.500000
vt 0.800000 1.000000
vt 0.600000 0.500000
vt 0.600000 1.000000
vt 0.400000 0.500000
vt 0.142128 0.101527
vt 0.075459 0.306712
vt 0.075459 0.306712
vt 0.400000 1.000000
vt 0.200000 0.500000
vt 0.200000 1.000000
vt 0.000000 0.500000
vt 0.891068 0.055836
vt 0.608932 0.055836
vt 0.521746 0.324164
vt 0.424541 0.306712
vt 0.250000 0.490000
vt 0.250000 0.433523
vt 0.357872 0.101527
vt 0.478254 0.324164
vt 0.108932 0.055836
vt 0.391068 0.055836
vt 0.021746 0.324164
vt 0.144898 0.284150
vt 0.185043 0.160595
vt 0.144898 0.284150
vt 0.357872 0.101527
vt 0.250000 0.433523
vt 0.142128 0.101527
vt 0.424541 0.306712
vt 0.250000 0.360511
vt 0.314957 0.160595
vt 0.355102 0.284150
vt 0.185043 0.160595
vt 0.250000 0.360511
vt 0.144898 0.284150
vt 0.250000 0.360511
vt 0.314957 0.160595
vt 0.250000 0.360511
vt 0.355102 0.284150
vt 0.185043 0.160595
vt 0.144898 0.284150
vt 0.314957 0.160595
vt 0.185043 0.160595
vt 0.185043 0.160595
vt 0.355102 0.284150
vt 0.355102 0.284150
vt 0.144898 0.284150
vt 0.314957 0.160595
vt 0.250000 0.360511
vt 0.314957 0.160595
vt 0.355102 0.284150
vt 0.625000 1.000000
vt 0.875000 0.750000
vt 0.000000 1.000000
vt 0.750000 0.490000
vt 0.978254 0.324164
vn -0.9932 0.0000 -0.1165
vn 0.0000 0.0000 -1.0000
vn 0.9932 0.0000 -0.1165
vn 0.0000 0.0000 1.0000
vn 0.0000 1.0000 -0.0000
vn 0.0000 -1.0000 0.0000
vn -0.9940 0.0000 0.1090
vn 0.9940 0.0000 0.1090
vn 0.5878 0.0000 -0.8090
vn 0.9511 0.0000 0.3090
vn -0.9511 0.0000 0.3090
vn -0.5878 0.0000 -0.8090
vn -0.9496 -0.0000 0.3136
vn -0.5519 0.7468 -0.3711
vn 0.9511 0.0001 0.3090
vn -0.5815 0.0004 -0.8135
vn 0.0000 0.0004 1.0000
vn 0.5878 0.0001 -0.8090
vn -0.9510 -0.3092 -0.0000
vn 0.0000 -0.9194 0.3933
vn 0.4247 0.8416 -0.3338
vn -0.9084 -0.2967 0.2946
vn 0.9160 -0.2877 0.2796
vn 0.0000 -0.0403 0.9992
vn 0.9510 -0.3092 0.0000
vn -0.5875 0.8092 0.0000
vn 0.5875 0.8092 0.0000
vn 0.9228 -0.2917 0.2516
vn -0.9074 -0.3261 0.2650
vn 0.4239 0.3151 -0.8491
vn 0.0000 -0.3272 0.9449
vn -0.5702 0.3797 -0.7285
vn -0.9511 0.0001 0.3090
vn -0.4247 0.8416 -0.3338
vn 0.9496 -0.0000 0.3136
vn -0.5878 0.0001 -0.8090
vn 0.5815 0.0004 -0.8135
vn 0.0000 -0.9194 0.3934
vn 0.5519 0.7468 -0.3711
vn -0.9160 -0.2877 0.2796
vn 0.9084 -0.2967 0.2946
vn 0.9074 -0.3261 0.2650
vn -0.9228 -0.2917 0.2516
vn 0.5702 0.3797 -0.7285
vn -0.4239 0.3151 -0.8491
usemtl Gray_LightPole
s off
f 2/1/1 9/2/1 10/3/1
f 4/4/2 11/5/2 9/2/2
f 8/6/3 12/7/3 11/5/3
f 6/8/4 10/9/4 12/7/4
f 1/10/2 16/11/2 5/12/2
f 4/13/5 6/8/5 8/6/5
f 1/10/6 9/14/6 3/15/6
f 3/15/6 11/5/6 7/16/6
f 5/12/6 11/5/6 12/7/6
f 5/12/6 10/17/6 1/10/6
f 7/16/4 13/18/4 3/15/4
f 5/12/7 15/19/7 7/16/7
f 3/15/8 14/20/8 1/10/8
f 28/21/9 19/22/9 17/23/9
f 27/24/10 21/25/10 19/22/10
f 29/26/4 23/27/4 21/25/4
f 24/28/11 41/29/11 26/30/11
f 30/31/11 25/32/11 23/27/11
f 31/33/12 17/34/12 25/32/12
f 21/35/6 23/36/6 25/37/6
f 20/38/5 28/39/5 18/40/5
f 22/41/5 27/42/5 20/38/5
f 22/41/5 30/43/5 29/44/5
f 26/30/5 30/43/5 24/28/5
f 18/40/5 31/45/5 26/30/5
f 36/46/13 45/47/13 46/48/13
f 20/38/10 39/49/10 22/41/10
f 26/30/12 38/50/12 18/40/12
f 22/41/4 40/51/4 24/28/4
f 18/40/9 37/52/9 20/38/9
f 33/53/5 37/52/5 38/50/5
f 34/54/5 37/52/5 32/55/5
f 35/56/5 39/49/5 34/54/5
f 36/46/5 40/51/5 35/56/5
f 33/53/5 41/29/5 36/46/5
f 58/57/14 51/58/14 48/59/14
f 32/55/15 44/60/15 34/54/15
f 33/53/16 46/48/16 43/61/16
f 34/54/17 45/47/17 35/56/17
f 33/53/18 42/62/18 32/55/18
f 51/58/19 55/63/19 56/64/19
f 59/65/20 50/66/20 60/67/20
f 58/57/21 47/68/21 61/69/21
f 60/67/22 51/58/22 57/70/22
f 59/65/23 47/68/23 49/71/23
f 53/72/24 55/63/24 54/73/24
f 47/68/25 54/73/25 49/71/25
f 48/59/26 56/64/26 53/72/26
f 49/71/6 55/63/6 50/66/6
f 48/59/27 52/74/27 47/68/27
f 42/62/28 59/65/28 44/60/28
f 46/48/29 60/67/29 57/70/29
f 42/62/30 58/57/30 61/69/30
f 44/60/31 60/67/31 45/47/31
f 46/48/32 58/57/32 43/61/32
f 2/1/1 4/4/1 9/2/1
f 4/4/2 8/6/2 11/5/2
f 8/6/3 6/8/3 12/7/3
f 6/8/4 2/75/4 10/9/4
f 1/10/2 14/20/2 16/11/2
f 4/13/5 2/76/5 6/8/5
f 1/10/6 10/17/6 9/14/6
f 3/15/6 9/14/6 11/5/6
f 5/12/6 7/16/6 11/5/6
f 5/12/6 12/7/6 10/17/6
f 7/16/4 15/19/4 13/18/4
f 5/12/7 16/11/7 15/19/7
f 3/15/8 13/18/8 14/20/8
f 28/21/9 27/24/9 19/22/9
f 27/24/10 29/26/10 21/25/10
f 29/26/4 30/31/4 23/27/4
f 24/28/11 40/51/11 41/29/11
f 30/31/11 31/33/11 25/32/11
f 31/33/12 28/77/12 17/34/12
f 25/37/6 17/78/6 19/79/6
f 19/79/6 21/35/6 25/37/6
f 20/38/5 27/42/5 28/39/5
f 22/41/5 29/44/5 27/42/5
f 22/41/5 24/28/5 30/43/5
f 26/30/5 31/45/5 30/43/5
f 18/40/5 28/39/5 31/45/5
f 36/46/33 35/56/33 45/47/33
f 20/38/10 37/52/10 39/49/10
f 26/30/12 41/29/12 38/50/12
f 22/41/4 39/49/4 40/51/4
f 18/40/9 38/50/9 37/52/9
f 33/53/5 32/55/5 37/52/5
f 34/54/5 39/49/5 37/52/5
f 35/56/5 40/51/5 39/49/5
f 36/46/5 41/29/5 40/51/5
f 33/53/5 38/50/5 41/29/5
f 58/57/34 57/70/34 51/58/34
f 32/55/35 42/62/35 44/60/35
f 33/53/36 36/46/36 46/48/36
f 34/54/17 44/60/17 45/47/17
f 33/53/37 43/61/37 42/62/37
f 51/58/19 50/66/19 55/63/19
f 59/65/38 49/71/38 50/66/38
f 58/57/39 48/59/39 47/68/39
f 60/67/40 50/66/40 51/58/40
f 59/65/41 61/69/41 47/68/41
f 54/73/24 52/74/24 53/72/24
f 53/72/24 56/64/24 55/63/24
f 47/68/25 52/74/25 54/73/25
f 48/59/26 51/58/26 56/64/26
f 49/71/6 54/73/6 55/63/6
f 48/59/27 53/72/27 52/74/27
f 42/62/42 61/69/42 59/65/42
f 46/48/43 45/47/43 60/67/43
f 42/62/44 43/61/44 58/57/44
f 44/60/31 59/65/31 60/67/31
f 46/48/45 57/70/45 58/57/45
usemtl Yellow_LightPole
f 15/19/6 14/20/6 13/18/6
f 15/19/6 16/11/6 14/20/6
