# Blender v2.90.0 OBJ File: 'SandsSack.blend'
# www.blender.org
mtllib SandsSack.mtl
o SandsSack_Cube.097
v 0.238919 -0.094033 0.279678
v 0.238919 0.119337 0.279678
v 0.238919 -0.094033 -0.279678
v 0.238919 0.119337 -0.279678
v 1.023204 -0.094033 0.279678
v 1.023204 0.119337 0.279678
v 1.023204 -0.094033 -0.279678
v 1.023204 0.119337 -0.279678
v 0.152987 -0.114584 -0.000000
v 0.152987 -0.000249 0.340965
v 0.152987 0.139888 0.000000
v 0.152987 -0.000249 -0.340965
v 0.631062 -0.114584 -0.340965
v 0.631062 0.139888 -0.340965
v 1.109136 -0.000249 -0.340965
v 1.109136 -0.114584 0.000000
v 1.109136 0.139888 0.000000
v 1.109137 -0.000249 0.340965
v 0.631062 -0.114584 0.340965
v 0.631062 0.139888 0.340965
v -0.027350 -0.000249 0.000000
v 0.631062 -0.000249 -0.469583
v 1.289474 -0.000249 0.000000
v 0.631062 -0.000249 0.469583
v 0.631062 -0.157713 0.000000
v 0.631062 0.183017 0.000000
v -1.046930 -0.094033 0.279678
v -1.046930 0.119337 0.279678
v -1.046930 -0.094033 -0.279678
v -1.046930 0.119337 -0.279678
v -0.262645 -0.094033 0.279678
v -0.262645 0.119337 0.279678
v -0.262645 -0.094033 -0.279678
v -0.262645 0.119337 -0.279678
v -1.132862 -0.114584 -0.000000
v -1.132862 -0.000249 0.340965
v -1.132862 0.139888 0.000000
v -1.132862 -0.000249 -0.340965
v -0.654787 -0.114584 -0.340965
v -0.654787 0.139888 -0.340965
v -0.176712 -0.000249 -0.340965
v -0.176712 -0.114584 0.000000
v -0.176712 0.139888 0.000000
v -0.176712 -0.000249 0.340965
v -0.654787 -0.114584 0.340965
v -0.654787 0.139888 0.340965
v -1.313199 -0.000249 0.000000
v -0.654787 -0.000249 -0.469583
v 0.003625 -0.000249 0.000000
v -0.654787 -0.000249 0.469583
v -0.654787 -0.157713 0.000000
v -0.654787 0.183017 0.000000
v -0.380280 0.133322 0.279678
v -0.380280 0.346692 0.279678
v -0.380280 0.133322 -0.279678
v -0.380279 0.346692 -0.279678
v 0.404005 0.133322 0.279678
v 0.404005 0.346692 0.279678
v 0.404005 0.133322 -0.279678
v 0.404005 0.346692 -0.279678
v -0.466212 0.112771 -0.000000
v -0.466212 0.227106 0.340965
v -0.466212 0.367244 0.000000
v -0.466212 0.227106 -0.340965
v 0.011863 0.112771 -0.340965
v 0.011863 0.367244 -0.340965
v 0.489938 0.227106 -0.340965
v 0.489938 0.112771 0.000000
v 0.489938 0.367244 0.000000
v 0.489938 0.227106 0.340965
v 0.011863 0.112771 0.340965
v 0.011863 0.367244 0.340965
v -0.646549 0.227106 0.000000
v 0.011863 0.227106 -0.469583
v 0.670275 0.227106 0.000000
v 0.011863 0.227106 0.469583
v 0.011863 0.069642 0.000000
v 0.011863 0.410373 0.000000
v -0.380280 -0.356118 0.279678
v -0.380280 -0.142748 0.279678
v -0.380280 -0.356118 -0.279678
v -0.380279 -0.142748 -0.279678
v 0.404005 -0.356118 0.279678
v 0.404005 -0.142748 0.279678
v 0.404005 -0.356118 -0.279678
v 0.404005 -0.142748 -0.279678
v -0.466212 -0.376669 -0.000000
v -0.466212 -0.262334 0.340965
v -0.466212 -0.122196 0.000000
v -0.466212 -0.262334 -0.340965
v 0.011863 -0.376669 -0.340965
v 0.011863 -0.122196 -0.340965
v 0.489938 -0.262334 -0.340965
v 0.489938 -0.376669 0.000000
v 0.489938 -0.122196 0.000000
v 0.489938 -0.262334 0.340965
v 0.011863 -0.376669 0.340965
v 0.011863 -0.122196 0.340965
v -0.646549 -0.262334 0.000000
v 0.011863 -0.262334 -0.469583
v 0.670275 -0.262334 0.000000
v 0.011863 -0.262334 0.469583
v 0.011863 -0.419798 0.000000
v 0.011863 -0.079067 0.000000
vt 0.500000 0.000000
vt 0.375000 0.125000
vt 0.375000 0.000000
vt 0.625000 0.125000
vt 0.500000 0.125000
vt 0.500000 0.250000
vt 0.375000 0.250000
vt 0.500000 0.373264
vt 0.369792 0.369792
vt 0.625000 0.250000
vt 0.666667 0.458333
vt 0.500000 0.493056
vt 0.333333 0.458333
vt 0.368056 0.625000
vt 0.631945 0.625000
vt 0.500000 0.625000
vt 0.500000 0.756944
vt 0.333333 0.791667
vt 0.500000 0.876736
vt 0.369792 0.880208
vt 0.666667 0.791667
vt 0.625000 1.000000
vt 0.500000 1.000000
vt 0.375000 1.000000
vt 0.125000 0.500000
vt 0.248264 0.625000
vt 0.125000 0.625000
vt 0.244792 0.494792
vt 0.244792 0.755208
vt 0.125000 0.750000
vt 0.751736 0.625000
vt 0.875000 0.500000
vt 0.755208 0.494792
vt 0.875000 0.750000
vt 0.755208 0.755208
vt 0.500000 0.000000
vt 0.375000 0.125000
vt 0.375000 0.000000
vt 0.625000 0.125000
vt 0.500000 0.125000
vt 0.500000 0.250000
vt 0.375000 0.250000
vt 0.500000 0.373264
vt 0.369792 0.369792
vt 0.625000 0.250000
vt 0.666667 0.458333
vt 0.500000 0.493056
vt 0.333333 0.458333
vt 0.368056 0.625000
vt 0.631945 0.625000
vt 0.500000 0.625000
vt 0.500000 0.756944
vt 0.333333 0.791667
vt 0.500000 0.876736
vt 0.369792 0.880208
vt 0.666667 0.791667
vt 0.625000 1.000000
vt 0.500000 1.000000
vt 0.375000 1.000000
vt 0.125000 0.500000
vt 0.248264 0.625000
vt 0.125000 0.625000
vt 0.244792 0.494792
vt 0.244792 0.755208
vt 0.125000 0.750000
vt 0.751736 0.625000
vt 0.875000 0.500000
vt 0.755208 0.494792
vt 0.875000 0.750000
vt 0.755208 0.755208
vt 0.500000 0.000000
vt 0.375000 0.125000
vt 0.375000 0.000000
vt 0.625000 0.125000
vt 0.500000 0.125000
vt 0.500000 0.250000
vt 0.375000 0.250000
vt 0.500000 0.373264
vt 0.369792 0.369792
vt 0.625000 0.250000
vt 0.666667 0.458333
vt 0.500000 0.493056
vt 0.333333 0.458333
vt 0.368056 0.625000
vt 0.631945 0.625000
vt 0.500000 0.625000
vt 0.500000 0.756944
vt 0.333333 0.791667
vt 0.500000 0.876736
vt 0.369792 0.880208
vt 0.666667 0.791667
vt 0.625000 1.000000
vt 0.500000 1.000000
vt 0.375000 1.000000
vt 0.125000 0.500000
vt 0.248264 0.625000
vt 0.125000 0.625000
vt 0.244792 0.494792
vt 0.244792 0.755208
vt 0.125000 0.750000
vt 0.751736 0.625000
vt 0.875000 0.500000
vt 0.755208 0.494792
vt 0.875000 0.750000
vt 0.755208 0.755208
vt 0.500000 0.000000
vt 0.375000 0.125000
vt 0.375000 0.000000
vt 0.625000 0.125000
vt 0.500000 0.125000
vt 0.500000 0.250000
vt 0.375000 0.250000
vt 0.500000 0.373264
vt 0.369792 0.369792
vt 0.625000 0.250000
vt 0.666667 0.458333
vt 0.500000 0.493056
vt 0.333333 0.458333
vt 0.368056 0.625000
vt 0.631945 0.625000
vt 0.500000 0.625000
vt 0.500000 0.756944
vt 0.333333 0.791667
vt 0.500000 0.876736
vt 0.369792 0.880208
vt 0.666667 0.791667
vt 0.625000 1.000000
vt 0.500000 1.000000
vt 0.375000 1.000000
vt 0.125000 0.500000
vt 0.248264 0.625000
vt 0.125000 0.625000
vt 0.244792 0.494792
vt 0.244792 0.755208
vt 0.125000 0.750000
vt 0.751736 0.625000
vt 0.875000 0.500000
vt 0.755208 0.494792
vt 0.875000 0.750000
vt 0.755208 0.755208
vt 0.625000 0.000000
vt 0.630208 0.369792
vt 0.630208 0.880208
vt 0.875000 0.625000
vt 0.625000 0.000000
vt 0.630208 0.369792
vt 0.630208 0.880208
vt 0.875000 0.625000
vt 0.625000 0.000000
vt 0.630208 0.369792
vt 0.630208 0.880208
vt 0.875000 0.625000
vt 0.625000 0.000000
vt 0.630208 0.369792
vt 0.630208 0.880208
vt 0.875000 0.625000
vn -0.6285 -0.7375 0.2473
vn -0.5836 0.7511 0.3087
vn -0.5836 0.7511 -0.3087
vn -0.6285 -0.7375 -0.2473
vn -0.1416 -0.7399 -0.6577
vn -0.2147 0.5632 -0.7979
vn 0.2147 0.5632 -0.7979
vn 0.1416 -0.7399 -0.6577
vn 0.6285 -0.7375 -0.2473
vn 0.5836 0.7511 -0.3087
vn 0.5836 0.7511 0.3087
vn 0.6285 -0.7375 0.2473
vn 0.1416 -0.7399 0.6577
vn 0.2147 0.5632 0.7979
vn -0.2147 0.5632 0.7979
vn -0.1416 -0.7399 0.6577
vn -0.0894 -0.9909 -0.1003
vn 0.0714 -0.9896 -0.1252
vn 0.0714 -0.9896 0.1252
vn -0.0894 -0.9909 0.1003
vn 0.0894 0.9909 -0.1003
vn -0.0714 0.9896 -0.1252
vn -0.0714 0.9896 0.1252
vn 0.0894 0.9909 0.1003
vn -0.5152 -0.8126 0.2725
vn -0.7127 0.6488 0.2667
vn -0.7127 0.6488 -0.2667
vn -0.5152 -0.8126 -0.2725
vn -0.1961 -0.6560 -0.7289
vn -0.1489 0.6686 -0.7285
vn 0.1489 0.6686 -0.7285
vn 0.1961 -0.6560 -0.7289
vn 0.5152 -0.8126 -0.2725
vn 0.7127 0.6488 -0.2667
vn 0.7127 0.6488 0.2667
vn 0.5152 -0.8126 0.2725
vn 0.1961 -0.6560 0.7289
vn 0.1489 0.6686 0.7285
vn -0.1489 0.6686 0.7285
vn -0.1961 -0.6560 0.7289
vn -0.0714 -0.9896 -0.1252
vn 0.0894 -0.9909 -0.1003
vn 0.0894 -0.9909 0.1003
vn -0.0714 -0.9896 0.1252
vn 0.0714 0.9896 -0.1252
vn -0.0894 0.9909 -0.1003
vn -0.0894 0.9909 0.1003
vn 0.0714 0.9896 0.1252
usemtl Yellow_SandSacks
s off
f 10/1/1 9/2/1 1/3/1
f 10/1/2 11/4/2 21/5/2
f 11/4/3 12/6/3 21/5/3
f 9/2/4 12/6/4 3/7/4
f 3/7/5 22/8/5 13/9/5
f 4/10/6 22/8/6 12/6/6
f 22/8/7 8/11/7 15/12/7
f 22/8/8 7/13/8 13/9/8
f 15/12/9 16/14/9 7/13/9
f 15/12/10 17/15/10 23/16/10
f 17/15/11 18/17/11 23/16/11
f 16/14/12 18/17/12 5/18/12
f 5/18/13 24/19/13 19/20/13
f 6/21/14 24/19/14 18/17/14
f 24/19/15 2/22/15 10/23/15
f 24/19/16 1/24/16 19/20/16
f 3/25/17 25/26/17 9/27/17
f 7/13/18 25/26/18 13/28/18
f 25/26/19 5/18/19 19/29/19
f 25/26/20 1/30/20 9/27/20
f 8/11/21 26/31/21 17/15/21
f 4/32/22 26/31/22 14/33/22
f 26/31/23 2/34/23 20/35/23
f 26/31/24 6/21/24 17/15/24
f 36/36/1 35/37/1 27/38/1
f 36/36/2 37/39/2 47/40/2
f 37/39/3 38/41/3 47/40/3
f 35/37/4 38/41/4 29/42/4
f 29/42/5 48/43/5 39/44/5
f 30/45/6 48/43/6 38/41/6
f 48/43/7 34/46/7 41/47/7
f 48/43/8 33/48/8 39/44/8
f 41/47/9 42/49/9 33/48/9
f 41/47/10 43/50/10 49/51/10
f 43/50/11 44/52/11 49/51/11
f 42/49/12 44/52/12 31/53/12
f 31/53/13 50/54/13 45/55/13
f 32/56/14 50/54/14 44/52/14
f 50/54/15 28/57/15 36/58/15
f 50/54/16 27/59/16 45/55/16
f 29/60/17 51/61/17 35/62/17
f 33/48/18 51/61/18 39/63/18
f 51/61/19 31/53/19 45/64/19
f 51/61/20 27/65/20 35/62/20
f 34/46/21 52/66/21 43/50/21
f 30/67/22 52/66/22 40/68/22
f 52/66/23 28/69/23 46/70/23
f 52/66/24 32/56/24 43/50/24
f 62/71/1 61/72/1 53/73/1
f 62/71/2 63/74/2 73/75/2
f 63/74/3 64/76/3 73/75/3
f 61/72/4 64/76/4 55/77/4
f 55/77/5 74/78/5 65/79/5
f 56/80/6 74/78/6 64/76/6
f 74/78/7 60/81/7 67/82/7
f 74/78/8 59/83/8 65/79/8
f 67/82/9 68/84/9 59/83/9
f 67/82/10 69/85/10 75/86/10
f 69/85/11 70/87/11 75/86/11
f 68/84/12 70/87/12 57/88/12
f 57/88/13 76/89/13 71/90/13
f 58/91/14 76/89/14 70/87/14
f 76/89/15 54/92/15 62/93/15
f 76/89/16 53/94/16 71/90/16
f 55/95/17 77/96/17 61/97/17
f 59/83/18 77/96/18 65/98/18
f 77/96/19 57/88/19 71/99/19
f 77/96/20 53/100/20 61/97/20
f 60/81/21 78/101/21 69/85/21
f 56/102/22 78/101/22 66/103/22
f 78/101/23 54/104/23 72/105/23
f 78/101/24 58/91/24 69/85/24
f 88/106/1 87/107/1 79/108/1
f 88/106/2 89/109/2 99/110/2
f 89/109/3 90/111/3 99/110/3
f 87/107/4 90/111/4 81/112/4
f 81/112/5 100/113/5 91/114/5
f 82/115/6 100/113/6 90/111/6
f 100/113/7 86/116/7 93/117/7
f 100/113/8 85/118/8 91/114/8
f 93/117/9 94/119/9 85/118/9
f 93/117/10 95/120/10 101/121/10
f 95/120/11 96/122/11 101/121/11
f 94/119/12 96/122/12 83/123/12
f 83/123/13 102/124/13 97/125/13
f 84/126/14 102/124/14 96/122/14
f 102/124/15 80/127/15 88/128/15
f 102/124/16 79/129/16 97/125/16
f 81/130/17 103/131/17 87/132/17
f 85/118/18 103/131/18 91/133/18
f 103/131/19 83/123/19 97/134/19
f 103/131/20 79/135/20 87/132/20
f 86/116/21 104/136/21 95/120/21
f 82/137/22 104/136/22 92/138/22
f 104/136/23 80/139/23 98/140/23
f 104/136/24 84/126/24 95/120/24
f 10/1/25 21/5/25 9/2/25
f 10/1/26 2/141/26 11/4/26
f 11/4/27 4/10/27 12/6/27
f 9/2/28 21/5/28 12/6/28
f 3/7/29 12/6/29 22/8/29
f 4/10/30 14/142/30 22/8/30
f 22/8/31 14/142/31 8/11/31
f 22/8/32 15/12/32 7/13/32
f 15/12/33 23/16/33 16/14/33
f 15/12/34 8/11/34 17/15/34
f 17/15/35 6/21/35 18/17/35
f 16/14/36 23/16/36 18/17/36
f 5/18/37 18/17/37 24/19/37
f 6/21/38 20/143/38 24/19/38
f 24/19/39 20/143/39 2/22/39
f 24/19/40 10/23/40 1/24/40
f 3/25/41 13/28/41 25/26/41
f 7/13/42 16/14/42 25/26/42
f 25/26/43 16/14/43 5/18/43
f 25/26/44 19/29/44 1/30/44
f 8/11/45 14/33/45 26/31/45
f 4/32/46 11/144/46 26/31/46
f 26/31/47 11/144/47 2/34/47
f 26/31/48 20/35/48 6/21/48
f 36/36/25 47/40/25 35/37/25
f 36/36/26 28/145/26 37/39/26
f 37/39/27 30/45/27 38/41/27
f 35/37/28 47/40/28 38/41/28
f 29/42/29 38/41/29 48/43/29
f 30/45/30 40/146/30 48/43/30
f 48/43/31 40/146/31 34/46/31
f 48/43/32 41/47/32 33/48/32
f 41/47/33 49/51/33 42/49/33
f 41/47/34 34/46/34 43/50/34
f 43/50/35 32/56/35 44/52/35
f 42/49/36 49/51/36 44/52/36
f 31/53/37 44/52/37 50/54/37
f 32/56/38 46/147/38 50/54/38
f 50/54/39 46/147/39 28/57/39
f 50/54/40 36/58/40 27/59/40
f 29/60/41 39/63/41 51/61/41
f 33/48/42 42/49/42 51/61/42
f 51/61/43 42/49/43 31/53/43
f 51/61/44 45/64/44 27/65/44
f 34/46/45 40/68/45 52/66/45
f 30/67/46 37/148/46 52/66/46
f 52/66/47 37/148/47 28/69/47
f 52/66/48 46/70/48 32/56/48
f 62/71/25 73/75/25 61/72/25
f 62/71/26 54/149/26 63/74/26
f 63/74/27 56/80/27 64/76/27
f 61/72/28 73/75/28 64/76/28
f 55/77/29 64/76/29 74/78/29
f 56/80/30 66/150/30 74/78/30
f 74/78/31 66/150/31 60/81/31
f 74/78/32 67/82/32 59/83/32
f 67/82/33 75/86/33 68/84/33
f 67/82/34 60/81/34 69/85/34
f 69/85/35 58/91/35 70/87/35
f 68/84/36 75/86/36 70/87/36
f 57/88/37 70/87/37 76/89/37
f 58/91/38 72/151/38 76/89/38
f 76/89/39 72/151/39 54/92/39
f 76/89/40 62/93/40 53/94/40
f 55/95/41 65/98/41 77/96/41
f 59/83/42 68/84/42 77/96/42
f 77/96/43 68/84/43 57/88/43
f 77/96/44 71/99/44 53/100/44
f 60/81/45 66/103/45 78/101/45
f 56/102/46 63/152/46 78/101/46
f 78/101/47 63/152/47 54/104/47
f 78/101/48 72/105/48 58/91/48
f 88/106/25 99/110/25 87/107/25
f 88/106/26 80/153/26 89/109/26
f 89/109/27 82/115/27 90/111/27
f 87/107/28 99/110/28 90/111/28
f 81/112/29 90/111/29 100/113/29
f 82/115/30 92/154/30 100/113/30
f 100/113/31 92/154/31 86/116/31
f 100/113/32 93/117/32 85/118/32
f 93/117/33 101/121/33 94/119/33
f 93/117/34 86/116/34 95/120/34
f 95/120/35 84/126/35 96/122/35
f 94/119/36 101/121/36 96/122/36
f 83/123/37 96/122/37 102/124/37
f 84/126/38 98/155/38 102/124/38
f 102/124/39 98/155/39 80/127/39
f 102/124/40 88/128/40 79/129/40
f 81/130/41 91/133/41 103/131/41
f 85/118/42 94/119/42 103/131/42
f 103/131/43 94/119/43 83/123/43
f 103/131/44 97/134/44 79/135/44
f 86/116/45 92/138/45 104/136/45
f 82/137/46 89/156/46 104/136/46
f 104/136/47 89/156/47 80/139/47
f 104/136/48 98/140/48 84/126/48
