# Blender v2.90.0 OBJ File: 'TargetPratice.blend'
# www.blender.org
mtllib TargetPratice.mtl
o TargetPratice_Cylinder.022
v -0.000000 1.040816 -0.228197
v -0.000000 0.077911 0.123876
v 0.587785 0.849833 -0.228197
v 0.021804 0.070826 0.123876
v 0.951057 0.349833 -0.228197
v 0.035279 0.052279 0.123876
v 0.951056 -0.268201 -0.228197
v 0.035279 0.029354 0.123876
v 0.587785 -0.768201 -0.228197
v 0.021803 0.010806 0.123876
v -0.000000 -0.959184 -0.228197
v -0.000000 0.003722 0.123876
v -0.587785 -0.768201 -0.228197
v -0.021804 0.010806 0.123876
v -0.951056 -0.268201 -0.228197
v -0.035279 0.029353 0.123876
v -0.951056 0.349833 -0.228197
v -0.035279 0.052279 0.123876
v -0.587785 0.849834 -0.228197
v -0.021803 0.070826 0.123876
v -0.127459 -0.086643 -0.208005
v -0.127459 0.168275 -0.208005
v -0.127459 -1.078956 -1.655422
v -0.127459 -0.839411 -1.742609
v 0.127459 -0.086643 -0.208005
v 0.127459 0.168275 -0.208005
v 0.127459 -1.078956 -1.655422
v 0.127459 -0.839411 -1.742609
v 0.587785 0.849833 0.123876
v -0.000000 1.040816 0.123876
v 0.951057 0.349833 0.123876
v 0.951056 -0.268201 0.123876
v 0.587785 -0.768201 0.123876
v -0.000000 -0.959184 0.123876
v -0.587785 -0.768201 0.123876
v -0.951056 -0.268201 0.123876
v -0.951056 0.349833 0.123876
v -0.587785 0.849834 0.123876
v 0.449192 0.659077 0.123876
v -0.000000 0.805028 0.123876
v 0.726809 0.276971 0.123876
v 0.726809 -0.195338 0.123876
v 0.449192 -0.577444 0.123876
v -0.000000 -0.723396 0.123876
v -0.449193 -0.577444 0.123876
v -0.726809 -0.195338 0.123876
v -0.726809 0.276971 0.123876
v -0.449192 0.659077 0.123876
v 0.265278 0.405940 0.123876
v -0.000000 0.492134 0.123876
v 0.429229 0.180281 0.123876
v 0.429229 -0.098649 0.123876
v 0.265278 -0.324307 0.123876
v -0.000000 -0.410501 0.123876
v -0.265278 -0.324307 0.123876
v -0.429229 -0.098649 0.123876
v -0.429229 0.180281 0.123876
v -0.265278 0.405940 0.123876
v 0.071221 0.138843 0.123876
v -0.000000 0.161984 0.123876
v 0.115238 0.078259 0.123876
v 0.115238 0.003373 0.123876
v 0.071221 -0.057211 0.123876
v -0.000000 -0.080352 0.123876
v -0.071221 -0.057211 0.123876
v -0.115238 0.003373 0.123876
v -0.115238 0.078259 0.123876
v -0.071221 0.138843 0.123876
v -0.000000 0.648581 0.123876
v 0.357235 0.532508 0.123876
v 0.578019 0.228626 0.123876
v 0.578019 -0.146993 0.123876
v 0.357235 -0.450876 0.123876
v -0.000000 -0.566948 0.123876
v -0.357235 -0.450876 0.123876
v -0.578019 -0.146993 0.123876
v -0.578019 0.228626 0.123876
v -0.357235 0.532508 0.123876
v -0.000000 0.327059 0.123876
v 0.168249 0.272392 0.123876
v 0.272233 0.129270 0.123876
v 0.272233 -0.047638 0.123876
v 0.168249 -0.190759 0.123876
v -0.000000 -0.245427 0.123876
v -0.168249 -0.190759 0.123876
v -0.272233 -0.047638 0.123876
v -0.272233 0.129270 0.123876
v -0.168249 0.272392 0.123876
v -0.000000 0.922922 0.123876
v 0.518489 0.754455 0.123876
v 0.838933 0.313402 0.123876
v 0.838933 -0.231769 0.123876
v 0.518489 -0.672822 0.123876
v -0.000000 -0.841290 0.123876
v -0.518489 -0.672822 0.123876
v -0.838933 -0.231769 0.123876
v -0.838933 0.313402 0.123876
v -0.518489 0.754455 0.123876
vt 1.000000 1.000000
vt 0.900000 0.500000
vt 1.000000 0.500000
vt 0.900000 1.000000
vt 0.800000 0.500000
vt 0.800000 1.000000
vt 0.700000 0.500000
vt 0.600000 1.000000
vt 0.600000 0.500000
vt 0.500000 0.500000
vt 0.500000 1.000000
vt 0.400000 0.500000
vt 0.400000 1.000000
vt 0.300000 0.500000
vt 0.300000 1.000000
vt 0.200000 0.500000
vt 0.200000 1.000000
vt 0.100000 0.500000
vt 0.100000 1.000000
vt -0.000000 0.500000
vt 0.978254 0.175836
vt 0.750000 0.010000
vt 0.521746 0.175836
vt 0.375000 0.000000
vt 0.625000 0.250000
vt 0.375000 0.250000
vt 0.375000 0.500000
vt 0.625000 0.500000
vt 0.375000 0.750000
vt 0.625000 0.750000
vt 0.375000 1.000000
vt 0.125000 0.750000
vt 0.125000 0.500000
vt 0.875000 0.500000
vt 0.374437 0.421273
vt 0.250000 0.490000
vt 0.250000 0.461705
vt 0.451344 0.315421
vt 0.391068 0.444164
vt 0.478254 0.175836
vt 0.478254 0.324164
vt 0.374437 0.078727
vt 0.451344 0.184579
vt 0.250000 0.038295
vt 0.391068 0.055836
vt 0.125563 0.078727
vt 0.250000 0.010000
vt 0.021746 0.175836
vt 0.108932 0.055836
vt 0.048656 0.315421
vt 0.048656 0.184579
vt 0.108932 0.444164
vt 0.021746 0.324164
vt 0.125563 0.421273
vt 0.335736 0.368006
vt 0.250000 0.433411
vt 0.250000 0.395864
vt 0.388724 0.295074
vt 0.357806 0.398382
vt 0.424434 0.193323
vt 0.424434 0.306677
vt 0.388724 0.204926
vt 0.357806 0.101618
vt 0.250000 0.104136
vt 0.335736 0.131994
vt 0.142194 0.101618
vt 0.250000 0.066589
vt 0.164264 0.131994
vt 0.075566 0.193323
vt 0.111276 0.295074
vt 0.111276 0.204926
vt 0.164264 0.368006
vt 0.075566 0.306677
vt 0.142194 0.398383
vt 0.290380 0.305578
vt 0.250000 0.358316
vt 0.250000 0.318698
vt 0.315336 0.271229
vt 0.313667 0.337630
vt 0.315336 0.228771
vt 0.353015 0.283472
vt 0.313667 0.162370
vt 0.353015 0.216528
vt 0.250000 0.181302
vt 0.290380 0.194422
vt 0.186333 0.162370
vt 0.250000 0.141684
vt 0.209620 0.194422
vt 0.146985 0.216528
vt 0.184664 0.271229
vt 0.184664 0.228771
vt 0.209620 0.305578
vt 0.146985 0.283472
vt 0.186333 0.337630
vt 0.255233 0.257202
vt 0.250000 0.279080
vt 0.250000 0.258903
vt 0.258467 0.252751
vt 0.267093 0.273527
vt 0.277657 0.241014
vt 0.277657 0.258986
vt 0.258467 0.247249
vt 0.267093 0.226473
vt 0.250000 0.241097
vt 0.255233 0.242798
vt 0.244767 0.242798
vt 0.250000 0.220920
vt 0.222343 0.241014
vt 0.232907 0.226473
vt 0.241533 0.252751
vt 0.241533 0.247249
vt 0.232907 0.273526
vt 0.222343 0.258986
vt 0.244767 0.257202
vt 0.700000 1.000000
vt -0.000000 1.000000
vt 0.608932 0.444164
vt 0.750000 0.490000
vt 0.891068 0.444164
vt 0.978254 0.324164
vt 0.891068 0.055836
vt 0.608932 0.055836
vt 0.521746 0.324164
vt 0.625000 0.000000
vt 0.625000 1.000000
vt 0.875000 0.750000
vn 0.3090 0.9511 0.0000
vn 0.8090 0.5878 0.0000
vn 1.0000 -0.0000 0.0000
vn 0.8090 -0.5878 0.0000
vn 0.3090 -0.9511 0.0000
vn -0.3090 -0.9511 0.0000
vn -0.8090 -0.5878 0.0000
vn -1.0000 0.0000 0.0000
vn -0.8090 0.5878 0.0000
vn -0.3090 0.9511 0.0000
vn 0.0000 0.0000 -1.0000
vn 0.0000 -0.3420 -0.9397
vn 0.0000 0.0000 1.0000
vn 0.0000 -0.8248 0.5655
vn 0.0000 0.8359 -0.5489
usemtl Black_TargetPratice
s off
f 30/1/1 3/2/1 1/3/1
f 29/4/2 5/5/2 3/2/2
f 31/6/3 7/7/3 5/5/3
f 7/7/4 33/8/4 9/9/4
f 33/8/5 11/10/5 9/9/5
f 34/11/6 13/12/6 11/10/6
f 35/13/7 15/14/7 13/12/7
f 36/15/8 17/16/8 15/14/8
f 37/17/9 19/18/9 17/16/9
f 38/19/10 1/20/10 19/18/10
f 7/21/11 11/22/11 15/23/11
f 21/24/8 24/25/8 23/26/8
f 24/25/12 27/27/12 23/26/12
f 28/28/3 25/29/3 27/27/3
f 26/30/13 21/31/13 25/29/13
f 27/27/14 21/32/14 23/33/14
f 24/34/15 26/30/15 28/28/15
f 90/35/13 30/36/13 89/37/13
f 91/38/13 29/39/13 90/35/13
f 91/38/13 32/40/13 31/41/13
f 93/42/13 32/40/13 92/43/13
f 94/44/13 33/45/13 93/42/13
f 95/46/13 34/47/13 94/44/13
f 95/46/13 36/48/13 35/49/13
f 97/50/13 36/48/13 96/51/13
f 97/50/13 38/52/13 37/53/13
f 89/37/13 38/52/13 98/54/13
f 70/55/13 40/56/13 69/57/13
f 71/58/13 39/59/13 70/55/13
f 71/58/13 42/60/13 41/61/13
f 72/62/13 43/63/13 42/60/13
f 74/64/13 43/63/13 73/65/13
f 74/64/13 45/66/13 44/67/13
f 75/68/13 46/69/13 45/66/13
f 77/70/13 46/69/13 76/71/13
f 78/72/13 47/73/13 77/70/13
f 69/57/13 48/74/13 78/72/13
f 80/75/13 50/76/13 79/77/13
f 81/78/13 49/79/13 80/75/13
f 82/80/13 51/81/13 81/78/13
f 82/80/13 53/82/13 52/83/13
f 84/84/13 53/82/13 83/85/13
f 84/84/13 55/86/13 54/87/13
f 85/88/13 56/89/13 55/86/13
f 87/90/13 56/89/13 86/91/13
f 88/92/13 57/93/13 87/90/13
f 79/77/13 58/94/13 88/92/13
f 4/95/13 60/96/13 2/97/13
f 6/98/13 59/99/13 4/95/13
f 6/98/13 62/100/13 61/101/13
f 8/102/13 63/103/13 62/100/13
f 12/104/13 63/103/13 10/105/13
f 14/106/13 64/107/13 12/104/13
f 14/106/13 66/108/13 65/109/13
f 18/110/13 66/108/13 16/111/13
f 18/110/13 68/112/13 67/113/13
f 2/97/13 68/112/13 20/114/13
f 30/1/1 29/4/1 3/2/1
f 29/4/2 31/6/2 5/5/2
f 31/6/3 32/115/3 7/7/3
f 7/7/4 32/115/4 33/8/4
f 33/8/5 34/11/5 11/10/5
f 34/11/6 35/13/6 13/12/6
f 35/13/7 36/15/7 15/14/7
f 36/15/8 37/17/8 17/16/8
f 37/17/9 38/19/9 19/18/9
f 38/19/10 30/116/10 1/20/10
f 19/117/11 1/118/11 3/119/11
f 3/119/11 5/120/11 7/21/11
f 7/21/11 9/121/11 11/22/11
f 11/22/11 13/122/11 15/23/11
f 15/23/11 17/123/11 19/117/11
f 19/117/11 3/119/11 15/23/11
f 3/119/11 7/21/11 15/23/11
f 21/24/8 22/124/8 24/25/8
f 24/25/12 28/28/12 27/27/12
f 28/28/3 26/30/3 25/29/3
f 26/30/13 22/125/13 21/31/13
f 27/27/14 25/29/14 21/32/14
f 24/34/15 22/126/15 26/30/15
f 90/35/13 29/39/13 30/36/13
f 91/38/13 31/41/13 29/39/13
f 91/38/13 92/43/13 32/40/13
f 93/42/13 33/45/13 32/40/13
f 94/44/13 34/47/13 33/45/13
f 95/46/13 35/49/13 34/47/13
f 95/46/13 96/51/13 36/48/13
f 97/50/13 37/53/13 36/48/13
f 97/50/13 98/54/13 38/52/13
f 89/37/13 30/36/13 38/52/13
f 70/55/13 39/59/13 40/56/13
f 71/58/13 41/61/13 39/59/13
f 71/58/13 72/62/13 42/60/13
f 72/62/13 73/65/13 43/63/13
f 74/64/13 44/67/13 43/63/13
f 74/64/13 75/68/13 45/66/13
f 75/68/13 76/71/13 46/69/13
f 77/70/13 47/73/13 46/69/13
f 78/72/13 48/74/13 47/73/13
f 69/57/13 40/56/13 48/74/13
f 80/75/13 49/79/13 50/76/13
f 81/78/13 51/81/13 49/79/13
f 82/80/13 52/83/13 51/81/13
f 82/80/13 83/85/13 53/82/13
f 84/84/13 54/87/13 53/82/13
f 84/84/13 85/88/13 55/86/13
f 85/88/13 86/91/13 56/89/13
f 87/90/13 57/93/13 56/89/13
f 88/92/13 58/94/13 57/93/13
f 79/77/13 50/76/13 58/94/13
f 4/95/13 59/99/13 60/96/13
f 6/98/13 61/101/13 59/99/13
f 6/98/13 8/102/13 62/100/13
f 8/102/13 10/105/13 63/103/13
f 12/104/13 64/107/13 63/103/13
f 14/106/13 65/109/13 64/107/13
f 14/106/13 16/111/13 66/108/13
f 18/110/13 67/113/13 66/108/13
f 18/110/13 20/114/13 68/112/13
f 2/97/13 60/96/13 68/112/13
usemtl White_TargetPratice
f 8/102/13 6/98/13 18/110/13
f 50/76/13 78/72/13 58/94/13
f 57/93/13 78/72/13 77/70/13
f 57/93/13 76/71/13 56/89/13
f 56/89/13 75/68/13 55/86/13
f 55/86/13 74/64/13 54/87/13
f 54/87/13 73/65/13 53/82/13
f 53/82/13 72/62/13 52/83/13
f 52/83/13 71/58/13 51/81/13
f 49/79/13 71/58/13 70/55/13
f 49/79/13 69/57/13 50/76/13
f 68/112/13 79/77/13 88/92/13
f 68/112/13 87/90/13 67/113/13
f 67/113/13 86/91/13 66/108/13
f 65/109/13 86/91/13 85/88/13
f 64/107/13 85/88/13 84/84/13
f 64/107/13 83/85/13 63/103/13
f 63/103/13 82/80/13 62/100/13
f 61/101/13 82/80/13 81/78/13
f 61/101/13 80/75/13 59/99/13
f 59/99/13 79/77/13 60/96/13
f 40/56/13 98/54/13 48/74/13
f 48/74/13 97/50/13 47/73/13
f 47/73/13 96/51/13 46/69/13
f 45/66/13 96/51/13 95/46/13
f 45/66/13 94/44/13 44/67/13
f 44/67/13 93/42/13 43/63/13
f 43/63/13 92/43/13 42/60/13
f 42/60/13 91/38/13 41/61/13
f 41/61/13 90/35/13 39/59/13
f 40/56/13 90/35/13 89/37/13
f 6/98/13 4/95/13 18/110/13
f 4/95/13 2/97/13 18/110/13
f 2/97/13 20/114/13 18/110/13
f 18/110/13 16/111/13 10/105/13
f 16/111/13 14/106/13 10/105/13
f 14/106/13 12/104/13 10/105/13
f 10/105/13 8/102/13 18/110/13
f 50/76/13 69/57/13 78/72/13
f 57/93/13 58/94/13 78/72/13
f 57/93/13 77/70/13 76/71/13
f 56/89/13 76/71/13 75/68/13
f 55/86/13 75/68/13 74/64/13
f 54/87/13 74/64/13 73/65/13
f 53/82/13 73/65/13 72/62/13
f 52/83/13 72/62/13 71/58/13
f 49/79/13 51/81/13 71/58/13
f 49/79/13 70/55/13 69/57/13
f 68/112/13 60/96/13 79/77/13
f 68/112/13 88/92/13 87/90/13
f 67/113/13 87/90/13 86/91/13
f 65/109/13 66/108/13 86/91/13
f 64/107/13 65/109/13 85/88/13
f 64/107/13 84/84/13 83/85/13
f 63/103/13 83/85/13 82/80/13
f 61/101/13 62/100/13 82/80/13
f 61/101/13 81/78/13 80/75/13
f 59/99/13 80/75/13 79/77/13
f 40/56/13 89/37/13 98/54/13
f 48/74/13 98/54/13 97/50/13
f 47/73/13 97/50/13 96/51/13
f 45/66/13 46/69/13 96/51/13
f 45/66/13 95/46/13 94/44/13
f 44/67/13 94/44/13 93/42/13
f 43/63/13 93/42/13 92/43/13
f 42/60/13 92/43/13 91/38/13
f 41/61/13 91/38/13 90/35/13
f 40/56/13 39/59/13 90/35/13
