# Blender v2.90.0 OBJ File: 'Wall_02.blend'
# www.blender.org
mtllib Wall_02.mtl
o Wall_02_Cube.090
v 1.538047 -2.848297 0.319726
v 1.538047 3.508709 0.319726
v 1.538047 -2.848297 -0.319726
v 1.538047 3.508709 -0.319726
v -4.461952 -2.848297 -0.319726
v -4.461952 -2.848297 0.319726
v -4.461952 3.508709 0.319726
v -4.461952 3.508709 -0.319726
v 1.538047 -1.259046 0.319726
v 1.538047 -1.259046 -0.319726
v -4.461952 -1.259046 0.319726
v -4.461952 -1.259046 -0.319726
v 1.538047 -1.592933 -0.699846
v 1.538047 -2.848297 -0.699846
v -4.461952 -1.592933 -0.699846
v -4.461952 -2.848297 -0.699846
v -4.461952 -2.848297 0.699846
v 1.538047 -2.848297 0.699846
v 1.538047 -1.592933 0.699846
v -4.461952 -1.592933 0.699846
v 1.538054 -2.848298 0.898534
v 1.538054 3.508709 0.898534
v 1.538054 -2.848298 -0.898534
v 1.538054 3.508709 -0.898534
v 3.335122 -2.848298 0.898534
v 3.335122 3.508709 0.898534
v 3.335122 -2.848298 -0.898534
v 3.335122 3.508709 -0.898534
v 1.911153 4.379452 0.525435
v 1.911153 4.379452 -0.525435
v 2.962024 4.379452 -0.525435
v 2.962024 4.379452 0.525435
vt 0.437500 0.250000
vt 0.625000 0.000000
vt 0.437500 0.000000
vt 0.437500 0.000000
vt 0.437500 0.000000
vt 0.625000 0.250000
vt 0.625000 0.000000
vt 0.375000 0.000000
vt 0.375000 0.250000
vt 0.375000 0.250000
vt 0.625000 0.250000
vt 0.375000 0.250000
vt 0.437500 0.250000
vt 0.437500 0.250000
vt 0.375000 0.000000
vt 0.375000 0.000000
vt 0.437500 0.250000
vt 0.375000 0.000000
vt 0.625000 0.000000
vt 0.375000 0.250000
vt 0.375000 0.000000
vt 0.625000 0.250000
vt 0.375000 0.500000
vt 0.625000 0.500000
vt 0.375000 0.750000
vt 0.625000 0.750000
vt 0.375000 1.000000
vt 0.125000 0.750000
vt 0.125000 0.500000
vt 0.625000 0.500000
vt 0.875000 0.500000
vt 0.625000 0.750000
vt 0.625000 0.250000
vt 0.625000 1.000000
vt 0.625000 1.000000
vt 0.437500 0.000000
vt 0.375000 0.250000
vt 0.875000 0.750000
vt 0.625000 0.000000
vn 1.0000 0.0000 0.0000
vn 0.0000 0.7513 0.6599
vn 0.0000 0.0000 1.0000
vn 0.0000 1.0000 0.0000
vn 0.0000 -1.0000 0.0000
vn 0.0000 0.0000 -1.0000
vn 0.0000 0.7513 -0.6599
vn -1.0000 0.0000 0.0000
vn 0.0000 0.3939 -0.9192
vn 0.9192 0.3938 0.0000
vn -0.9192 0.3939 0.0000
vn 0.0000 0.3939 0.9192
vn 0.9192 0.3939 0.0000
usemtl Gray_Wall02
s off
f 10/1/1 2/2/1 9/3/1
f 11/4/2 19/5/2 9/3/2
f 2/2/3 11/4/3 9/3/3
f 4/6/4 7/7/4 2/2/4
f 1/8/5 5/9/5 3/10/5
f 10/1/6 8/11/6 4/6/6
f 3/10/1 9/3/1 1/8/1
f 14/12/6 15/13/6 13/14/6
f 19/5/3 17/15/3 18/16/3
f 3/10/1 13/14/1 10/1/1
f 1/8/1 19/5/1 18/16/1
f 5/9/5 14/12/5 3/10/5
f 12/17/7 13/14/7 15/13/7
f 6/18/5 18/16/5 17/15/5
f 22/19/8 23/20/8 21/21/8
f 24/22/6 27/23/6 23/20/6
f 28/24/1 25/25/1 27/23/1
f 26/26/3 21/27/3 25/25/3
f 27/23/5 21/28/5 23/29/5
f 24/22/9 31/30/9 28/24/9
f 30/31/4 32/32/4 31/30/4
f 26/26/10 31/30/10 32/32/10
f 22/19/11 30/33/11 24/22/11
f 26/26/12 29/34/12 22/35/12
f 10/1/1 4/6/1 2/2/1
f 11/4/2 20/36/2 19/5/2
f 2/2/3 7/7/3 11/4/3
f 4/6/4 8/11/4 7/7/4
f 1/8/5 6/18/5 5/9/5
f 10/1/6 12/17/6 8/11/6
f 3/10/1 10/1/1 9/3/1
f 14/12/6 16/37/6 15/13/6
f 19/5/3 20/36/3 17/15/3
f 3/10/1 14/12/1 13/14/1
f 1/8/1 9/3/1 19/5/1
f 5/9/5 16/37/5 14/12/5
f 12/17/7 10/1/7 13/14/7
f 6/18/5 1/8/5 18/16/5
f 22/19/8 24/22/8 23/20/8
f 24/22/6 28/24/6 27/23/6
f 28/24/1 26/26/1 25/25/1
f 26/26/3 22/35/3 21/27/3
f 27/23/5 25/25/5 21/28/5
f 24/22/9 30/33/9 31/30/9
f 30/31/4 29/38/4 32/32/4
f 26/26/13 28/24/13 31/30/13
f 22/19/11 29/39/11 30/33/11
f 26/26/12 32/32/12 29/34/12
