# Blender v2.90.0 OBJ File: 'WoodenBox.blend'
# www.blender.org
mtllib WoodenBox.mtl
o WoodenBox_Cube.071
v -0.473635 -0.480328 0.682737
v -0.473635 0.680325 0.477916
v -0.473635 -0.480328 -0.682737
v -0.473635 0.475504 -0.682737
v 0.687018 -0.480328 0.477916
v 0.687018 0.475504 0.477916
v 0.482197 -0.480328 -0.682737
v 0.482197 0.475504 -0.682737
v -0.473635 0.680325 -0.477916
v -0.678457 -0.459846 -0.457434
v 0.687018 -0.480328 -0.477916
v 0.687018 0.475504 -0.477916
v 0.482197 0.680325 -0.477916
v 0.482197 -0.685149 -0.477916
v 0.482197 -0.480328 0.682737
v 0.482197 0.680325 0.477916
v -0.473635 0.475504 0.682737
v -0.678457 0.455022 -0.457434
v 0.687018 0.680325 -0.682737
v 0.482197 0.475504 0.682737
v -0.678457 -0.459846 0.457434
v -0.678457 0.455022 0.457434
v 0.687018 0.680325 0.682737
v 0.482197 -0.685149 0.477916
v -0.473635 -0.685149 -0.477916
v -0.473635 -0.685149 0.477916
v -0.678457 0.680325 0.682737
v -0.678457 0.680325 -0.682737
v -0.678457 -0.685149 -0.682737
v -0.678457 -0.685149 0.682737
v 0.687018 -0.685149 -0.682737
v 0.687018 -0.685149 0.682737
v 0.618744 0.475504 -0.477916
v 0.618744 -0.480328 -0.477916
v 0.618744 -0.480328 0.477916
v 0.618744 0.475504 0.477916
v -0.610183 -0.459846 -0.457434
v -0.610183 -0.459846 0.457434
v -0.610183 0.455022 0.457434
v -0.610183 0.455022 -0.457434
v -0.473636 0.475504 -0.614464
v -0.473636 -0.480328 -0.614464
v 0.482197 -0.480328 -0.614464
v 0.482197 0.475504 -0.614464
v -0.473636 -0.480328 0.614464
v -0.473636 0.475504 0.614464
v 0.482197 0.475504 0.614464
v 0.482197 -0.480328 0.614464
v -0.473635 0.629235 0.477916
v -0.473635 0.629235 -0.477916
v 0.482197 0.629235 -0.477916
v 0.482197 0.629235 0.477916
v -0.473635 -0.621214 -0.477916
v -0.473635 -0.621214 0.477916
v 0.482197 -0.621214 -0.477916
v 0.482197 -0.621214 0.477916
v 0.173096 0.561338 0.514040
v 0.173096 0.660175 0.514040
v 0.173096 0.561338 -0.514040
v 0.173096 0.660175 -0.514040
v 0.484961 0.561338 0.514040
v 0.484961 0.660175 0.514040
v 0.484961 0.561338 -0.514040
v 0.484961 0.660175 -0.514040
v -0.170468 0.561338 0.514040
v -0.170468 0.660175 0.514040
v -0.170468 0.561338 -0.514040
v -0.170468 0.660175 -0.514040
v 0.141398 0.561338 0.514040
v 0.141398 0.660175 0.514040
v 0.141398 0.561338 -0.514040
v 0.141398 0.660175 -0.514040
v -0.511093 0.561338 0.514040
v -0.511093 0.660175 0.514040
v -0.511093 0.561338 -0.514040
v -0.511093 0.660175 -0.514040
v -0.199227 0.561338 0.514040
v -0.199227 0.660175 0.514040
v -0.199227 0.561338 -0.514040
v -0.199227 0.660175 -0.514040
v 0.173096 -0.650709 0.514040
v 0.173096 -0.551872 0.514040
v 0.173096 -0.650709 -0.514040
v 0.173096 -0.551872 -0.514040
v 0.484961 -0.650709 0.514040
v 0.484961 -0.551872 0.514040
v 0.484961 -0.650709 -0.514040
v 0.484961 -0.551872 -0.514040
v -0.170468 -0.650709 0.514040
v -0.170468 -0.551872 0.514040
v -0.170468 -0.650709 -0.514040
v -0.170468 -0.551872 -0.514040
v 0.141398 -0.650709 0.514040
v 0.141398 -0.551872 0.514040
v 0.141398 -0.650709 -0.514040
v 0.141398 -0.551872 -0.514040
v -0.511093 -0.650709 0.514040
v -0.511093 -0.551872 0.514040
v -0.511093 -0.650709 -0.514040
v -0.511093 -0.551872 -0.514040
v -0.199227 -0.650709 0.514040
v -0.199227 -0.551872 0.514040
v -0.199227 -0.650709 -0.514040
v -0.199227 -0.551872 -0.514040
v 0.173096 0.512545 0.649215
v 0.173096 0.512545 0.550378
v 0.173096 -0.515535 0.649215
v 0.173096 -0.515535 0.550378
v 0.484961 0.512545 0.649215
v 0.484961 0.512545 0.550378
v 0.484961 -0.515535 0.649215
v 0.484961 -0.515535 0.550378
v -0.170468 0.512545 0.649215
v -0.170468 0.512545 0.550378
v -0.170468 -0.515534 0.649215
v -0.170468 -0.515534 0.550378
v 0.141398 0.512545 0.649215
v 0.141398 0.512545 0.550378
v 0.141398 -0.515534 0.649215
v 0.141398 -0.515534 0.550378
v -0.511093 0.512545 0.649215
v -0.511093 0.512545 0.550378
v -0.511093 -0.515534 0.649215
v -0.511093 -0.515534 0.550378
v -0.199227 0.512545 0.649215
v -0.199227 0.512545 0.550378
v -0.199227 -0.515534 0.649215
v -0.199227 -0.515534 0.550378
v 0.653495 0.512545 -0.168815
v 0.554659 0.512545 -0.168815
v 0.653495 -0.515535 -0.168815
v 0.554658 -0.515535 -0.168815
v 0.653495 0.512545 -0.480681
v 0.554659 0.512545 -0.480681
v 0.653495 -0.515535 -0.480681
v 0.554659 -0.515535 -0.480681
v 0.653495 0.512545 0.174749
v 0.554659 0.512545 0.174749
v 0.653495 -0.515534 0.174749
v 0.554658 -0.515534 0.174749
v 0.653495 0.512545 -0.137117
v 0.554659 0.512545 -0.137117
v 0.653495 -0.515534 -0.137117
v 0.554658 -0.515534 -0.137117
v 0.653495 0.512545 0.515373
v 0.554659 0.512545 0.515373
v 0.653495 -0.515534 0.515373
v 0.554658 -0.515534 0.515373
v 0.653495 0.512545 0.203508
v 0.554659 0.512545 0.203508
v 0.653495 -0.515534 0.203508
v 0.554658 -0.515534 0.203508
v -0.164534 0.512545 -0.649215
v -0.164534 0.512545 -0.550378
v -0.164534 -0.515535 -0.649215
v -0.164534 -0.515535 -0.550378
v -0.476400 0.512545 -0.649215
v -0.476400 0.512545 -0.550378
v -0.476400 -0.515535 -0.649215
v -0.476400 -0.515535 -0.550378
v 0.179029 0.512545 -0.649215
v 0.179029 0.512545 -0.550378
v 0.179029 -0.515534 -0.649215
v 0.179029 -0.515534 -0.550378
v -0.132836 0.512545 -0.649215
v -0.132836 0.512545 -0.550378
v -0.132836 -0.515534 -0.649215
v -0.132836 -0.515534 -0.550378
v 0.519654 0.512545 -0.649215
v 0.519654 0.512545 -0.550378
v 0.519654 -0.515534 -0.649214
v 0.519654 -0.515534 -0.550378
v 0.207788 0.512545 -0.649215
v 0.207788 0.512545 -0.550378
v 0.207788 -0.515534 -0.649215
v 0.207788 -0.515534 -0.550378
v -0.644934 0.512545 0.168815
v -0.546097 0.512545 0.168815
v -0.644934 -0.515535 0.168815
v -0.546097 -0.515535 0.168815
v -0.644934 0.512545 0.480681
v -0.546097 0.512545 0.480681
v -0.644934 -0.515535 0.480681
v -0.546097 -0.515535 0.480681
v -0.644934 0.512545 -0.174749
v -0.546097 0.512545 -0.174749
v -0.644934 -0.515534 -0.174749
v -0.546097 -0.515534 -0.174749
v -0.644934 0.512545 0.137117
v -0.546097 0.512545 0.137117
v -0.644934 -0.515534 0.137117
v -0.546097 -0.515534 0.137117
v -0.644934 0.512545 -0.515373
v -0.546097 0.512545 -0.515373
v -0.644934 -0.515534 -0.515373
v -0.546097 -0.515534 -0.515373
v -0.644934 0.512545 -0.203508
v -0.546097 0.512545 -0.203508
v -0.644934 -0.515534 -0.203508
v -0.546097 -0.515534 -0.203508
vt 0.412500 0.712500
vt 0.587500 0.712500
vt 0.587500 0.712500
vt 0.587500 0.962500
vt 0.587500 0.787500
vt 0.587500 0.787500
vt 0.583750 0.041250
vt 0.416250 0.041250
vt 0.416250 0.041250
vt 0.587500 0.287500
vt 0.412500 0.287500
vt 0.412500 0.287500
vt 0.337500 0.712500
vt 0.337500 0.537500
vt 0.337500 0.537500
vt 0.662500 0.537500
vt 0.662500 0.712500
vt 0.662500 0.712500
vt 0.625000 0.250000
vt 0.412500 0.462500
vt 0.375000 0.250000
vt 0.625000 0.500000
vt 0.587500 0.462500
vt 0.375000 0.500000
vt 0.412500 0.537500
vt 0.587500 0.537500
vt 0.625000 0.750000
vt 0.375000 0.750000
vt 0.837500 0.537500
vt 0.875000 0.750000
vt 0.837500 0.712500
vt 0.875000 0.500000
vt 0.375000 1.000000
vt 0.412500 0.962500
vt 0.412500 0.787500
vt 0.625000 1.000000
vt 0.416250 0.208750
vt 0.375000 0.000000
vt 0.625000 0.000000
vt 0.583750 0.208750
vt 0.162500 0.712500
vt 0.125000 0.500000
vt 0.162500 0.537500
vt 0.125000 0.750000
vt 0.583750 0.041250
vt 0.416250 0.208750
vt 0.587500 0.537500
vt 0.412500 0.712500
vt 0.412500 0.537500
vt 0.583750 0.208750
vt 0.587500 0.287500
vt 0.412500 0.462500
vt 0.412500 0.962500
vt 0.412500 0.787500
vt 0.587500 0.462500
vt 0.587500 0.962500
vt 0.837500 0.537500
vt 0.662500 0.537500
vt 0.837500 0.712500
vt 0.162500 0.712500
vt 0.162500 0.537500
vt 0.337500 0.712500
vt 0.625000 0.000000
vt 0.375000 0.250000
vt 0.375000 0.000000
vt 0.625000 0.250000
vt 0.375000 0.500000
vt 0.625000 0.500000
vt 0.375000 0.750000
vt 0.625000 0.750000
vt 0.375000 1.000000
vt 0.125000 0.750000
vt 0.125000 0.500000
vt 0.875000 0.500000
vt 0.625000 0.000000
vt 0.375000 0.250000
vt 0.375000 0.000000
vt 0.625000 0.250000
vt 0.375000 0.500000
vt 0.625000 0.500000
vt 0.375000 0.750000
vt 0.625000 0.750000
vt 0.375000 1.000000
vt 0.125000 0.750000
vt 0.125000 0.500000
vt 0.875000 0.500000
vt 0.625000 0.000000
vt 0.375000 0.250000
vt 0.375000 0.000000
vt 0.625000 0.250000
vt 0.375000 0.500000
vt 0.625000 0.500000
vt 0.375000 0.750000
vt 0.625000 0.750000
vt 0.375000 1.000000
vt 0.125000 0.750000
vt 0.125000 0.500000
vt 0.875000 0.500000
vt 0.625000 0.000000
vt 0.375000 0.250000
vt 0.375000 0.000000
vt 0.625000 0.250000
vt 0.375000 0.500000
vt 0.625000 0.500000
vt 0.375000 0.750000
vt 0.625000 0.750000
vt 0.375000 1.000000
vt 0.125000 0.750000
vt 0.125000 0.500000
vt 0.875000 0.500000
vt 0.625000 0.000000
vt 0.375000 0.250000
vt 0.375000 0.000000
vt 0.625000 0.250000
vt 0.375000 0.500000
vt 0.625000 0.500000
vt 0.375000 0.750000
vt 0.625000 0.750000
vt 0.375000 1.000000
vt 0.125000 0.750000
vt 0.125000 0.500000
vt 0.875000 0.500000
vt 0.625000 0.000000
vt 0.375000 0.250000
vt 0.375000 0.000000
vt 0.625000 0.250000
vt 0.375000 0.500000
vt 0.625000 0.500000
vt 0.375000 0.750000
vt 0.625000 0.750000
vt 0.375000 1.000000
vt 0.125000 0.750000
vt 0.125000 0.500000
vt 0.875000 0.500000
vt 0.625000 0.000000
vt 0.375000 0.250000
vt 0.375000 0.000000
vt 0.625000 0.250000
vt 0.375000 0.500000
vt 0.625000 0.500000
vt 0.375000 0.750000
vt 0.625000 0.750000
vt 0.375000 1.000000
vt 0.125000 0.750000
vt 0.125000 0.500000
vt 0.875000 0.500000
vt 0.625000 0.000000
vt 0.375000 0.250000
vt 0.375000 0.000000
vt 0.625000 0.250000
vt 0.375000 0.500000
vt 0.625000 0.500000
vt 0.375000 0.750000
vt 0.625000 0.750000
vt 0.375000 1.000000
vt 0.125000 0.750000
vt 0.125000 0.500000
vt 0.875000 0.500000
vt 0.625000 0.000000
vt 0.375000 0.250000
vt 0.375000 0.000000
vt 0.625000 0.250000
vt 0.375000 0.500000
vt 0.625000 0.500000
vt 0.375000 0.750000
vt 0.625000 0.750000
vt 0.375000 1.000000
vt 0.125000 0.750000
vt 0.125000 0.500000
vt 0.875000 0.500000
vt 0.625000 0.000000
vt 0.375000 0.250000
vt 0.375000 0.000000
vt 0.625000 0.500000
vt 0.375000 0.500000
vt 0.375000 0.750000
vt 0.625000 0.750000
vt 0.375000 1.000000
vt 0.125000 0.750000
vt 0.125000 0.500000
vt 0.875000 0.500000
vt 0.625000 0.000000
vt 0.375000 0.250000
vt 0.375000 0.000000
vt 0.625000 0.250000
vt 0.375000 0.500000
vt 0.625000 0.500000
vt 0.375000 0.750000
vt 0.625000 0.750000
vt 0.375000 1.000000
vt 0.125000 0.750000
vt 0.125000 0.500000
vt 0.875000 0.500000
vt 0.625000 0.000000
vt 0.375000 0.250000
vt 0.375000 0.000000
vt 0.625000 0.250000
vt 0.375000 0.500000
vt 0.625000 0.500000
vt 0.375000 0.750000
vt 0.625000 0.750000
vt 0.375000 1.000000
vt 0.125000 0.750000
vt 0.125000 0.500000
vt 0.875000 0.500000
vt 0.625000 0.000000
vt 0.375000 0.250000
vt 0.375000 0.000000
vt 0.625000 0.250000
vt 0.375000 0.500000
vt 0.625000 0.500000
vt 0.375000 0.750000
vt 0.625000 0.750000
vt 0.375000 1.000000
vt 0.125000 0.750000
vt 0.125000 0.500000
vt 0.875000 0.500000
vt 0.625000 0.000000
vt 0.375000 0.250000
vt 0.375000 0.000000
vt 0.625000 0.250000
vt 0.375000 0.500000
vt 0.625000 0.500000
vt 0.375000 0.750000
vt 0.625000 0.750000
vt 0.375000 1.000000
vt 0.125000 0.750000
vt 0.125000 0.500000
vt 0.875000 0.500000
vt 0.625000 0.000000
vt 0.375000 0.250000
vt 0.375000 0.000000
vt 0.625000 0.250000
vt 0.375000 0.500000
vt 0.625000 0.500000
vt 0.375000 0.750000
vt 0.625000 0.750000
vt 0.375000 1.000000
vt 0.125000 0.750000
vt 0.125000 0.500000
vt 0.875000 0.500000
vt 0.625000 0.000000
vt 0.375000 0.250000
vt 0.375000 0.000000
vt 0.625000 0.250000
vt 0.375000 0.500000
vt 0.625000 0.500000
vt 0.375000 0.750000
vt 0.625000 0.750000
vt 0.375000 1.000000
vt 0.125000 0.750000
vt 0.125000 0.500000
vt 0.875000 0.500000
vt 0.625000 0.000000
vt 0.375000 0.250000
vt 0.375000 0.000000
vt 0.625000 0.250000
vt 0.375000 0.500000
vt 0.625000 0.500000
vt 0.375000 0.750000
vt 0.625000 0.750000
vt 0.375000 1.000000
vt 0.125000 0.750000
vt 0.125000 0.500000
vt 0.875000 0.500000
vt 0.625000 0.000000
vt 0.375000 0.250000
vt 0.375000 0.000000
vt 0.625000 0.250000
vt 0.375000 0.500000
vt 0.625000 0.500000
vt 0.375000 0.750000
vt 0.625000 1.000000
vt 0.375000 1.000000
vt 0.125000 0.750000
vt 0.125000 0.500000
vt 0.875000 0.500000
vt 0.625000 0.750000
vt 0.625000 1.000000
vt 0.875000 0.750000
vt 0.625000 1.000000
vt 0.875000 0.750000
vt 0.625000 1.000000
vt 0.875000 0.750000
vt 0.625000 1.000000
vt 0.875000 0.750000
vt 0.625000 1.000000
vt 0.875000 0.750000
vt 0.625000 1.000000
vt 0.875000 0.750000
vt 0.625000 1.000000
vt 0.875000 0.750000
vt 0.625000 1.000000
vt 0.875000 0.750000
vt 0.625000 1.000000
vt 0.875000 0.750000
vt 0.625000 0.250000
vt 0.625000 1.000000
vt 0.875000 0.750000
vt 0.625000 1.000000
vt 0.875000 0.750000
vt 0.625000 1.000000
vt 0.875000 0.750000
vt 0.625000 1.000000
vt 0.875000 0.750000
vt 0.625000 1.000000
vt 0.875000 0.750000
vt 0.625000 1.000000
vt 0.875000 0.750000
vt 0.625000 1.000000
vt 0.875000 0.750000
vt 0.625000 1.000000
vt 0.875000 0.750000
vt 0.875000 0.750000
vn 0.0000 0.0000 -1.0000
vn 0.0000 -1.0000 -0.0000
vn 1.0000 0.0000 0.0000
vn -1.0000 0.0000 0.0000
vn 0.0000 1.0000 0.0000
vn 0.0000 0.0000 1.0000
usemtl Yellow_WoodenBox
s off
f 5/1/1 36/2/1 6/3/1
f 17/4/2 47/5/2 20/6/2
f 22/7/1 38/8/1 21/9/1
f 4/10/3 42/11/3 3/12/3
f 24/13/4 55/14/4 14/15/4
f 13/16/4 52/17/4 16/18/4
f 3/12/1 28/19/1 4/10/1
f 7/20/1 29/21/1 3/12/1
f 4/10/1 19/22/1 8/23/1
f 8/23/1 31/24/1 7/20/1
f 11/25/3 19/22/3 12/26/3
f 5/1/3 31/24/3 11/25/3
f 12/26/3 23/27/3 6/3/3
f 6/3/3 32/28/3 5/1/3
f 9/29/5 27/30/5 2/31/5
f 13/16/5 28/32/5 9/29/5
f 16/18/5 19/22/5 13/16/5
f 2/31/5 23/27/5 16/18/5
f 17/4/6 30/33/6 1/34/6
f 15/35/6 23/27/6 20/6/6
f 1/34/6 32/28/6 15/35/6
f 20/6/6 27/36/6 17/4/6
f 10/37/4 30/38/4 21/9/4
f 21/9/4 27/39/4 22/7/4
f 22/7/4 28/19/4 18/40/4
f 18/40/4 29/21/4 10/37/4
f 26/41/2 29/42/2 25/43/2
f 25/43/2 31/24/2 14/15/2
f 14/15/2 32/28/2 24/13/2
f 24/13/2 30/44/2 26/41/2
f 39/45/4 37/46/4 38/8/4
f 33/47/3 35/48/3 34/49/3
f 11/25/5 35/48/5 5/1/5
f 18/40/2 39/45/2 22/7/2
f 21/9/5 37/46/5 10/37/5
f 6/3/2 33/47/2 12/26/2
f 12/26/6 34/49/6 11/25/6
f 10/37/6 40/50/6 18/40/6
f 41/51/1 43/52/1 42/11/1
f 47/5/6 45/53/6 48/54/6
f 15/35/4 47/5/4 48/54/4
f 7/20/4 44/55/4 8/23/4
f 3/12/5 43/52/5 7/20/5
f 1/34/5 48/54/5 45/53/5
f 1/34/3 46/56/3 17/4/3
f 8/23/2 41/51/2 4/10/2
f 50/57/5 52/17/5 51/58/5
f 2/31/3 50/57/3 9/29/3
f 16/18/1 49/59/1 2/31/1
f 9/29/6 51/58/6 13/16/6
f 55/14/2 54/60/2 53/61/2
f 25/43/3 54/60/3 26/41/3
f 26/41/1 56/62/1 24/13/1
f 14/15/6 53/61/6 25/43/6
f 58/63/4 59/64/4 57/65/4
f 60/66/1 63/67/1 59/64/1
f 64/68/3 61/69/3 63/67/3
f 62/70/6 57/71/6 61/69/6
f 63/67/2 57/72/2 59/73/2
f 60/74/5 62/70/5 64/68/5
f 66/75/4 67/76/4 65/77/4
f 68/78/1 71/79/1 67/76/1
f 72/80/3 69/81/3 71/79/3
f 70/82/6 65/83/6 69/81/6
f 71/79/2 65/84/2 67/85/2
f 68/86/5 70/82/5 72/80/5
f 74/87/4 75/88/4 73/89/4
f 76/90/1 79/91/1 75/88/1
f 80/92/3 77/93/3 79/91/3
f 78/94/6 73/95/6 77/93/6
f 79/91/2 73/96/2 75/97/2
f 76/98/5 78/94/5 80/92/5
f 82/99/4 83/100/4 81/101/4
f 84/102/1 87/103/1 83/100/1
f 88/104/3 85/105/3 87/103/3
f 86/106/6 81/107/6 85/105/6
f 87/103/2 81/108/2 83/109/2
f 84/110/5 86/106/5 88/104/5
f 90/111/4 91/112/4 89/113/4
f 92/114/1 95/115/1 91/112/1
f 96/116/3 93/117/3 95/115/3
f 94/118/6 89/119/6 93/117/6
f 95/115/2 89/120/2 91/121/2
f 92/122/5 94/118/5 96/116/5
f 98/123/4 99/124/4 97/125/4
f 100/126/1 103/127/1 99/124/1
f 104/128/3 101/129/3 103/127/3
f 102/130/6 97/131/6 101/129/6
f 103/127/2 97/132/2 99/133/2
f 100/134/5 102/130/5 104/128/5
f 106/135/4 107/136/4 105/137/4
f 108/138/2 111/139/2 107/136/2
f 112/140/3 109/141/3 111/139/3
f 110/142/5 105/143/5 109/141/5
f 111/139/6 105/144/6 107/145/6
f 108/146/1 110/142/1 112/140/1
f 114/147/4 115/148/4 113/149/4
f 116/150/2 119/151/2 115/148/2
f 120/152/3 117/153/3 119/151/3
f 118/154/5 113/155/5 117/153/5
f 119/151/6 113/156/6 115/157/6
f 116/158/1 118/154/1 120/152/1
f 122/159/4 123/160/4 121/161/4
f 124/162/2 127/163/2 123/160/2
f 128/164/3 125/165/3 127/163/3
f 126/166/5 121/167/5 125/165/5
f 127/163/6 121/168/6 123/169/6
f 124/170/1 126/166/1 128/164/1
f 130/171/6 131/172/6 129/173/6
f 131/172/2 136/174/2 135/175/2
f 136/174/1 133/176/1 135/175/1
f 134/177/5 129/178/5 133/176/5
f 135/175/3 129/179/3 131/180/3
f 132/181/4 134/177/4 136/174/4
f 138/182/6 139/183/6 137/184/6
f 140/185/2 143/186/2 139/183/2
f 144/187/1 141/188/1 143/186/1
f 142/189/5 137/190/5 141/188/5
f 143/186/3 137/191/3 139/192/3
f 140/193/4 142/189/4 144/187/4
f 146/194/6 147/195/6 145/196/6
f 148/197/2 151/198/2 147/195/2
f 152/199/1 149/200/1 151/198/1
f 150/201/5 145/202/5 149/200/5
f 151/198/3 145/203/3 147/204/3
f 148/205/4 150/201/4 152/199/4
f 154/206/3 155/207/3 153/208/3
f 156/209/2 159/210/2 155/207/2
f 160/211/4 157/212/4 159/210/4
f 158/213/5 153/214/5 157/212/5
f 159/210/1 153/215/1 155/216/1
f 156/217/6 158/213/6 160/211/6
f 162/218/3 163/219/3 161/220/3
f 164/221/2 167/222/2 163/219/2
f 168/223/4 165/224/4 167/222/4
f 166/225/5 161/226/5 165/224/5
f 167/222/1 161/227/1 163/228/1
f 164/229/6 166/225/6 168/223/6
f 170/230/3 171/231/3 169/232/3
f 172/233/2 175/234/2 171/231/2
f 176/235/4 173/236/4 175/234/4
f 174/237/5 169/238/5 173/236/5
f 175/234/1 169/239/1 171/240/1
f 172/241/6 174/237/6 176/235/6
f 178/242/1 179/243/1 177/244/1
f 180/245/2 183/246/2 179/243/2
f 184/247/6 181/248/6 183/246/6
f 182/249/5 177/250/5 181/248/5
f 183/246/4 177/251/4 179/252/4
f 180/253/3 182/249/3 184/247/3
f 186/254/1 187/255/1 185/256/1
f 188/257/2 191/258/2 187/255/2
f 192/259/6 189/260/6 191/258/6
f 190/261/5 185/262/5 189/260/5
f 191/258/4 185/263/4 187/264/4
f 188/265/3 190/261/3 192/259/3
f 194/266/1 195/267/1 193/268/1
f 196/269/2 199/270/2 195/267/2
f 200/271/6 197/272/6 199/270/6
f 197/272/5 194/273/5 193/274/5
f 199/270/4 193/275/4 195/276/4
f 196/277/3 198/278/3 200/271/3
f 5/1/1 35/48/1 36/2/1
f 17/4/2 46/56/2 47/5/2
f 22/7/1 39/45/1 38/8/1
f 4/10/3 41/51/3 42/11/3
f 24/13/4 56/62/4 55/14/4
f 13/16/4 51/58/4 52/17/4
f 3/12/1 29/21/1 28/19/1
f 7/20/1 31/24/1 29/21/1
f 4/10/1 28/19/1 19/22/1
f 8/23/1 19/22/1 31/24/1
f 11/25/3 31/24/3 19/22/3
f 5/1/3 32/28/3 31/24/3
f 12/26/3 19/22/3 23/27/3
f 6/3/3 23/27/3 32/28/3
f 9/29/5 28/32/5 27/30/5
f 13/16/5 19/22/5 28/32/5
f 16/18/5 23/27/5 19/22/5
f 2/31/5 27/30/5 23/27/5
f 17/4/6 27/36/6 30/33/6
f 15/35/6 32/28/6 23/27/6
f 1/34/6 30/33/6 32/28/6
f 20/6/6 23/27/6 27/36/6
f 10/37/4 29/21/4 30/38/4
f 21/9/4 30/38/4 27/39/4
f 22/7/4 27/39/4 28/19/4
f 18/40/4 28/19/4 29/21/4
f 26/41/2 30/44/2 29/42/2
f 25/43/2 29/42/2 31/24/2
f 14/15/2 31/24/2 32/28/2
f 24/13/2 32/28/2 30/44/2
f 39/45/4 40/50/4 37/46/4
f 33/47/3 36/2/3 35/48/3
f 11/25/5 34/49/5 35/48/5
f 18/40/2 40/50/2 39/45/2
f 21/9/5 38/8/5 37/46/5
f 6/3/2 36/2/2 33/47/2
f 12/26/6 33/47/6 34/49/6
f 10/37/6 37/46/6 40/50/6
f 41/51/1 44/55/1 43/52/1
f 47/5/6 46/56/6 45/53/6
f 15/35/4 20/6/4 47/5/4
f 7/20/4 43/52/4 44/55/4
f 3/12/5 42/11/5 43/52/5
f 1/34/5 15/35/5 48/54/5
f 1/34/3 45/53/3 46/56/3
f 8/23/2 44/55/2 41/51/2
f 50/57/5 49/59/5 52/17/5
f 2/31/3 49/59/3 50/57/3
f 16/18/1 52/17/1 49/59/1
f 9/29/6 50/57/6 51/58/6
f 55/14/2 56/62/2 54/60/2
f 25/43/3 53/61/3 54/60/3
f 26/41/1 54/60/1 56/62/1
f 14/15/6 55/14/6 53/61/6
f 58/63/4 60/66/4 59/64/4
f 60/66/1 64/68/1 63/67/1
f 64/68/3 62/70/3 61/69/3
f 62/70/6 58/279/6 57/71/6
f 63/67/2 61/69/2 57/72/2
f 60/74/5 58/280/5 62/70/5
f 66/75/4 68/78/4 67/76/4
f 68/78/1 72/80/1 71/79/1
f 72/80/3 70/82/3 69/81/3
f 70/82/6 66/281/6 65/83/6
f 71/79/2 69/81/2 65/84/2
f 68/86/5 66/282/5 70/82/5
f 74/87/4 76/90/4 75/88/4
f 76/90/1 80/92/1 79/91/1
f 80/92/3 78/94/3 77/93/3
f 78/94/6 74/283/6 73/95/6
f 79/91/2 77/93/2 73/96/2
f 76/98/5 74/284/5 78/94/5
f 82/99/4 84/102/4 83/100/4
f 84/102/1 88/104/1 87/103/1
f 88/104/3 86/106/3 85/105/3
f 86/106/6 82/285/6 81/107/6
f 87/103/2 85/105/2 81/108/2
f 84/110/5 82/286/5 86/106/5
f 90/111/4 92/114/4 91/112/4
f 92/114/1 96/116/1 95/115/1
f 96/116/3 94/118/3 93/117/3
f 94/118/6 90/287/6 89/119/6
f 95/115/2 93/117/2 89/120/2
f 92/122/5 90/288/5 94/118/5
f 98/123/4 100/126/4 99/124/4
f 100/126/1 104/128/1 103/127/1
f 104/128/3 102/130/3 101/129/3
f 102/130/6 98/289/6 97/131/6
f 103/127/2 101/129/2 97/132/2
f 100/134/5 98/290/5 102/130/5
f 106/135/4 108/138/4 107/136/4
f 108/138/2 112/140/2 111/139/2
f 112/140/3 110/142/3 109/141/3
f 110/142/5 106/291/5 105/143/5
f 111/139/6 109/141/6 105/144/6
f 108/146/1 106/292/1 110/142/1
f 114/147/4 116/150/4 115/148/4
f 116/150/2 120/152/2 119/151/2
f 120/152/3 118/154/3 117/153/3
f 118/154/5 114/293/5 113/155/5
f 119/151/6 117/153/6 113/156/6
f 116/158/1 114/294/1 118/154/1
f 122/159/4 124/162/4 123/160/4
f 124/162/2 128/164/2 127/163/2
f 128/164/3 126/166/3 125/165/3
f 126/166/5 122/295/5 121/167/5
f 127/163/6 125/165/6 121/168/6
f 124/170/1 122/296/1 126/166/1
f 130/171/6 132/297/6 131/172/6
f 131/172/2 132/297/2 136/174/2
f 136/174/1 134/177/1 133/176/1
f 134/177/5 130/298/5 129/178/5
f 135/175/3 133/176/3 129/179/3
f 132/181/4 130/299/4 134/177/4
f 138/182/6 140/185/6 139/183/6
f 140/185/2 144/187/2 143/186/2
f 144/187/1 142/189/1 141/188/1
f 142/189/5 138/300/5 137/190/5
f 143/186/3 141/188/3 137/191/3
f 140/193/4 138/301/4 142/189/4
f 146/194/6 148/197/6 147/195/6
f 148/197/2 152/199/2 151/198/2
f 152/199/1 150/201/1 149/200/1
f 150/201/5 146/302/5 145/202/5
f 151/198/3 149/200/3 145/203/3
f 148/205/4 146/303/4 150/201/4
f 154/206/3 156/209/3 155/207/3
f 156/209/2 160/211/2 159/210/2
f 160/211/4 158/213/4 157/212/4
f 158/213/5 154/304/5 153/214/5
f 159/210/1 157/212/1 153/215/1
f 156/217/6 154/305/6 158/213/6
f 162/218/3 164/221/3 163/219/3
f 164/221/2 168/223/2 167/222/2
f 168/223/4 166/225/4 165/224/4
f 166/225/5 162/306/5 161/226/5
f 167/222/1 165/224/1 161/227/1
f 164/229/6 162/307/6 166/225/6
f 170/230/3 172/233/3 171/231/3
f 172/233/2 176/235/2 175/234/2
f 176/235/4 174/237/4 173/236/4
f 174/237/5 170/308/5 169/238/5
f 175/234/1 173/236/1 169/239/1
f 172/241/6 170/309/6 174/237/6
f 178/242/1 180/245/1 179/243/1
f 180/245/2 184/247/2 183/246/2
f 184/247/6 182/249/6 181/248/6
f 182/249/5 178/310/5 177/250/5
f 183/246/4 181/248/4 177/251/4
f 180/253/3 178/311/3 182/249/3
f 186/254/1 188/257/1 187/255/1
f 188/257/2 192/259/2 191/258/2
f 192/259/6 190/261/6 189/260/6
f 190/261/5 186/312/5 185/262/5
f 191/258/4 189/260/4 185/263/4
f 188/265/3 186/313/3 190/261/3
f 194/266/1 196/269/1 195/267/1
f 196/269/2 200/271/2 199/270/2
f 200/271/6 198/278/6 197/272/6
f 197/272/5 198/278/5 194/273/5
f 199/270/4 197/272/4 193/275/4
f 196/277/3 194/314/3 198/278/3
